<svg width="24" xmlns="http://www.w3.org/2000/svg" height="24" id="screenshot-5fff5482-f1a7-80f0-8008-201c06b3510d" viewBox="0 0 24 24" xmlns:xlink="http://www.w3.org/1999/xlink" fill="none" version="1.1"><g id="shape-5fff5482-f1a7-80f0-8008-201c06b3510d"><defs><clipPath id="frame-clip-5fff5482-f1a7-80f0-8008-201c06b3510d-render-1" class="frame-clip frame-clip-def"><rect rx="0" ry="0" x="0" y="0" width="24" height="24" transform="matrix(1.000000, 0.000000, 0.000000, 1.000000, 0.000000, 0.000000)"/></clipPath></defs><g class="frame-container-wrapper"><g class="frame-container-blur"><g class="frame-container-shadows"><g clip-path="url(#frame-clip-5fff5482-f1a7-80f0-8008-201c06b3510d-render-1)" fill="none"><g class="fills" id="fills-5fff5482-f1a7-80f0-8008-201c06b3510d"><rect rx="0" ry="0" x="0" y="0" width="24" height="24" transform="matrix(1.000000, 0.000000, 0.000000, 1.000000, 0.000000, 0.000000)" class="frame-background"/></g><g class="frame-children"><g id="shape-5fff5482-f1a7-80f0-8008-201c06b2d3b2" width="24" class="icon icon-tabler icons-tabler-outline icon-tabler-brand-appstore" height="24" rx="0" ry="0" style="fill: rgb(0, 0, 0);"><g id="shape-5fff5482-f1a7-80f0-8008-201c06b2d3b4" style="display: none;"><g class="fills" id="fills-5fff5482-f1a7-80f0-8008-201c06b2d3b4"><rect width="24" height="24" x="0.16064769172953675" stroke-linejoin="round" transform="matrix(1.000000, 0.000000, 0.000000, 1.000000, 0.000000, 0.000000)" style="fill: none;" ry="0" fill="none" stroke-linecap="round" rx="0" y="-0.19038699295106198"/></g><g fill="none" stroke-linejoin="round" stroke-linecap="round" id="strokes-e12168ef-d0b9-8028-8008-28a4e01b217c-5fff5482-f1a7-80f0-8008-201c06b2d3b4" class="strokes"><g class="inner-stroke-shape" transform="matrix(1.000000, 0.000000, 0.000000, 1.000000, 0.000000, 0.000000)"><defs><clipPath id="inner-stroke-render-3-5fff5482-f1a7-80f0-8008-201c06b2d3b4-0"><use href="#stroke-shape-render-3-5fff5482-f1a7-80f0-8008-201c06b2d3b4-0"/></clipPath><rect rx="0" ry="0" x="0.16064769172953675" y="-0.19038699295106198" width="24" height="24" id="stroke-shape-render-3-5fff5482-f1a7-80f0-8008-201c06b2d3b4-0" style="fill: none; stroke-width: 4; stroke: rgb(205, 205, 205); stroke-opacity: 1;"/></defs><use href="#stroke-shape-render-3-5fff5482-f1a7-80f0-8008-201c06b2d3b4-0" clip-path="url('#inner-stroke-render-3-5fff5482-f1a7-80f0-8008-201c06b2d3b4-0')"/></g></g></g><g id="shape-5fff5482-f1a7-80f0-8008-201c06b32550"><g class="fills" id="fills-5fff5482-f1a7-80f0-8008-201c06b32550"><path d="M0.16015625,-0.1904296875L24.16015625,-0.1904296875L24.16015625,23.8095703125L0.16015625,23.8095703125L0.16015625,-0.1904296875" stroke="none" fill="none" stroke-linejoin="round" stroke-linecap="round" stroke-width="2" style="fill: none;"/></g></g><g id="shape-5fff5482-f1a7-80f0-8008-201c06b32551"><g class="fills" id="fills-5fff5482-f1a7-80f0-8008-201c06b32551"><path d="M3.16015625,11.8095703125C3.16015625,16.780029296875,7.19140625,20.8095703125,12.16015625,20.8095703125C17.12890625,20.8095703125,21.16015625,16.780029296875,21.16015625,11.8095703125C21.16015625,6.839111328125,17.12890625,2.8095703125,12.16015625,2.8095703125C7.19140625,2.8095703125,3.16015625,6.839111328125,3.16015625,11.8095703125" fill="none" stroke-linejoin="round" stroke-linecap="round" style="fill: none;"/></g><g fill="none" stroke-linejoin="round" stroke-linecap="round" id="strokes-e12168ef-d0b9-8028-8008-28a4e01cf1af-5fff5482-f1a7-80f0-8008-201c06b32551" class="strokes"><g class="inner-stroke-shape"><defs><clipPath id="inner-stroke-render-5-5fff5482-f1a7-80f0-8008-201c06b32551-0"><use href="#stroke-shape-render-5-5fff5482-f1a7-80f0-8008-201c06b32551-0"/></clipPath><path d="M3.16015625,11.8095703125C3.16015625,16.780029296875,7.19140625,20.8095703125,12.16015625,20.8095703125C17.12890625,20.8095703125,21.16015625,16.780029296875,21.16015625,11.8095703125C21.16015625,6.839111328125,17.12890625,2.8095703125,12.16015625,2.8095703125C7.19140625,2.8095703125,3.16015625,6.839111328125,3.16015625,11.8095703125" id="stroke-shape-render-5-5fff5482-f1a7-80f0-8008-201c06b32551-0" style="fill: none; stroke-width: 4; stroke: rgb(205, 205, 205); stroke-opacity: 1;"/></defs><use href="#stroke-shape-render-5-5fff5482-f1a7-80f0-8008-201c06b32551-0" clip-path="url('#inner-stroke-render-5-5fff5482-f1a7-80f0-8008-201c06b32551-0')"/></g></g></g><g id="shape-5fff5482-f1a7-80f0-8008-201c06b32552"><g class="fills" id="fills-5fff5482-f1a7-80f0-8008-201c06b32552"><path d="M8.16015625,15.8095703125L9.265625,13.819580078125M10.66796875,11.297607421875L13.16015625,6.8095703125" fill="none" stroke-linejoin="round" stroke-linecap="round" style="fill: none;"/></g><g fill="none" stroke-linejoin="round" stroke-linecap="round" id="strokes-e12168ef-d0b9-8028-8008-28a4e01d7ff7-5fff5482-f1a7-80f0-8008-201c06b32552" class="strokes"><g class="stroke-shape"><path d="M8.16015625,15.8095703125L9.265625,13.819580078125M10.66796875,11.297607421875L13.16015625,6.8095703125" style="fill: none; stroke-width: 2; stroke: rgb(205, 205, 205); stroke-opacity: 1;"/></g></g></g><g id="shape-5fff5482-f1a7-80f0-8008-201c06b32553"><g class="fills" id="fills-5fff5482-f1a7-80f0-8008-201c06b32553"><path d="M7.16015625,13.8095703125L12.16015625,13.8095703125M15.05859375,13.8095703125L17.16015625,13.8095703125" fill="none" stroke-linejoin="round" stroke-linecap="round" style="fill: none;"/></g><g fill="none" stroke-linejoin="round" stroke-linecap="round" id="strokes-e12168ef-d0b9-8028-8008-28a4e01d9f14-5fff5482-f1a7-80f0-8008-201c06b32553" class="strokes"><g class="stroke-shape"><path d="M7.16015625,13.8095703125L12.16015625,13.8095703125M15.05859375,13.8095703125L17.16015625,13.8095703125" style="fill: none; stroke-width: 2; stroke: rgb(205, 205, 205); stroke-opacity: 1;"/></g></g></g><g id="shape-5fff5482-f1a7-80f0-8008-201c06b32554"><g class="fills" id="fills-5fff5482-f1a7-80f0-8008-201c06b32554"><path d="M16.16015625,15.8095703125L13.6484375,11.29150390625M12.1640625,8.614501953125L11.1640625,6.8095703125" fill="none" stroke-linejoin="round" stroke-linecap="round" style="fill: none;"/></g><g fill="none" stroke-linejoin="round" stroke-linecap="round" id="strokes-e12168ef-d0b9-8028-8008-28a4e01e077a-5fff5482-f1a7-80f0-8008-201c06b32554" class="strokes"><g class="stroke-shape"><path d="M16.16015625,15.8095703125L13.6484375,11.29150390625M12.1640625,8.614501953125L11.1640625,6.8095703125" style="fill: none; stroke-width: 2; stroke: rgb(205, 205, 205); stroke-opacity: 1;"/></g></g></g></g></g></g></g></g></g></g></svg>