<svg width="24" xmlns="http://www.w3.org/2000/svg" height="24" id="screenshot-5fff5482-f1a7-80f0-8008-201c06954b71" viewBox="0 0 24 24" xmlns:xlink="http://www.w3.org/1999/xlink" fill="none" version="1.1"><g id="shape-5fff5482-f1a7-80f0-8008-201c06954b71"><defs><clipPath id="frame-clip-5fff5482-f1a7-80f0-8008-201c06954b71-render-1" class="frame-clip frame-clip-def"><rect rx="0" ry="0" x="0" y="0" width="24" height="24" transform="matrix(1.000000, 0.000000, 0.000000, 1.000000, 0.000000, 0.000000)"/></clipPath></defs><g class="frame-container-wrapper"><g class="frame-container-blur"><g class="frame-container-shadows"><g clip-path="url(#frame-clip-5fff5482-f1a7-80f0-8008-201c06954b71-render-1)" fill="none"><g class="fills" id="fills-5fff5482-f1a7-80f0-8008-201c06954b71"><rect rx="0" ry="0" x="0" y="0" width="24" height="24" transform="matrix(1.000000, 0.000000, 0.000000, 1.000000, 0.000000, 0.000000)" class="frame-background"/></g><g class="frame-children"><g id="shape-5fff5482-f1a7-80f0-8008-201c06950162" width="24" class="icon icon-tabler icons-tabler-outline icon-tabler-brand-apple" height="24" rx="0" ry="0" style="fill: rgb(0, 0, 0);"><g id="shape-5fff5482-f1a7-80f0-8008-201c06950164" style="display: none;"><g class="fills" id="fills-5fff5482-f1a7-80f0-8008-201c06950164"><rect width="24" height="24" x="0.16064769172953675" stroke-linejoin="round" transform="matrix(1.000000, 0.000000, 0.000000, 1.000000, 0.000000, 0.000000)" style="fill: none;" ry="0" fill="none" stroke-linecap="round" rx="0" y="-0.19038699295106198"/></g><g fill="none" stroke-linejoin="round" stroke-linecap="round" id="strokes-07044155-916f-807c-8008-28a51851b611-5fff5482-f1a7-80f0-8008-201c06950164" class="strokes"><g class="inner-stroke-shape" transform="matrix(1.000000, 0.000000, 0.000000, 1.000000, 0.000000, 0.000000)"><defs><clipPath id="inner-stroke-render-3-5fff5482-f1a7-80f0-8008-201c06950164-0"><use href="#stroke-shape-render-3-5fff5482-f1a7-80f0-8008-201c06950164-0"/></clipPath><rect rx="0" ry="0" x="0.16064769172953675" y="-0.19038699295106198" width="24" height="24" id="stroke-shape-render-3-5fff5482-f1a7-80f0-8008-201c06950164-0" style="fill: none; stroke-width: 4; stroke: rgb(205, 205, 205); stroke-opacity: 1;"/></defs><use href="#stroke-shape-render-3-5fff5482-f1a7-80f0-8008-201c06950164-0" clip-path="url('#inner-stroke-render-3-5fff5482-f1a7-80f0-8008-201c06950164-0')"/></g></g></g><g id="shape-5fff5482-f1a7-80f0-8008-201c06954b6e"><g class="fills" id="fills-5fff5482-f1a7-80f0-8008-201c06954b6e"><path d="M0.16015625,-0.1904296875L24.16015625,-0.1904296875L24.16015625,23.8095703125L0.16015625,23.8095703125L0.16015625,-0.1904296875" stroke="none" fill="none" stroke-linejoin="round" stroke-linecap="round" stroke-width="2" style="fill: none;"/></g></g><g id="shape-5fff5482-f1a7-80f0-8008-201c06954b6f"><g class="fills" id="fills-5fff5482-f1a7-80f0-8008-201c06954b6f"><path d="M8.4453125,6.817626953125C5.23046875,6.817626953125,4.16015625,10.047607421875,4.16015625,12.737548828125C4.16015625,15.966552734375,6.3046875,20.8095703125,8.4453125,20.8095703125C9.609375,20.759521484375,10.24609375,20.271484375,11.66015625,20.271484375C13.06640625,20.271484375,13.265625,20.8095703125,14.875,20.8095703125C16.48046875,20.8095703125,19.16015625,17.58056640625,19.16015625,15.428466796875C19.12890625,15.41748046875,16.51171875,14.99462890625,16.48046875,12.198486328125C16.4609375,9.863525390625,19.0703125,9.01953125,19.16015625,8.970458984375C18.0625,7.364501953125,16,6.857666015625,15.41015625,6.817626953125C13.875,6.697509765625,12.37890625,7.89453125,11.66015625,7.89453125C10.9296875,7.89453125,9.625,6.817626953125,8.4453125,6.817626953125" fill="none" stroke-linejoin="round" stroke-linecap="round" style="fill: none;"/></g><g fill="none" stroke-linejoin="round" stroke-linecap="round" id="strokes-07044155-916f-807c-8008-28a51853ad75-5fff5482-f1a7-80f0-8008-201c06954b6f" class="strokes"><g class="inner-stroke-shape"><defs><clipPath id="inner-stroke-render-5-5fff5482-f1a7-80f0-8008-201c06954b6f-0"><use href="#stroke-shape-render-5-5fff5482-f1a7-80f0-8008-201c06954b6f-0"/></clipPath><path d="M8.4453125,6.817626953125C5.23046875,6.817626953125,4.16015625,10.047607421875,4.16015625,12.737548828125C4.16015625,15.966552734375,6.3046875,20.8095703125,8.4453125,20.8095703125C9.609375,20.759521484375,10.24609375,20.271484375,11.66015625,20.271484375C13.06640625,20.271484375,13.265625,20.8095703125,14.875,20.8095703125C16.48046875,20.8095703125,19.16015625,17.58056640625,19.16015625,15.428466796875C19.12890625,15.41748046875,16.51171875,14.99462890625,16.48046875,12.198486328125C16.4609375,9.863525390625,19.0703125,9.01953125,19.16015625,8.970458984375C18.0625,7.364501953125,16,6.857666015625,15.41015625,6.817626953125C13.875,6.697509765625,12.37890625,7.89453125,11.66015625,7.89453125C10.9296875,7.89453125,9.625,6.817626953125,8.4453125,6.817626953125" id="stroke-shape-render-5-5fff5482-f1a7-80f0-8008-201c06954b6f-0" style="fill: none; stroke-width: 4; stroke: rgb(205, 205, 205); stroke-opacity: 1;"/></defs><use href="#stroke-shape-render-5-5fff5482-f1a7-80f0-8008-201c06954b6f-0" clip-path="url('#inner-stroke-render-5-5fff5482-f1a7-80f0-8008-201c06954b6f-0')"/></g></g></g><g id="shape-5fff5482-f1a7-80f0-8008-201c06954b70"><g class="fills" id="fills-5fff5482-f1a7-80f0-8008-201c06954b70"><path d="M12.16015625,3.8095703125C13.265625,3.8095703125,14.16015625,2.9140625,14.16015625,1.8095703125C13.0546875,1.8095703125,12.16015625,2.705078125,12.16015625,3.8095703125" fill="none" stroke-linejoin="round" stroke-linecap="round" style="fill: none;"/></g><g fill="none" stroke-linejoin="round" stroke-linecap="round" id="strokes-07044155-916f-807c-8008-28a51853d9c1-5fff5482-f1a7-80f0-8008-201c06954b70" class="strokes"><g class="inner-stroke-shape"><defs><clipPath id="inner-stroke-render-6-5fff5482-f1a7-80f0-8008-201c06954b70-0"><use href="#stroke-shape-render-6-5fff5482-f1a7-80f0-8008-201c06954b70-0"/></clipPath><path d="M12.16015625,3.8095703125C13.265625,3.8095703125,14.16015625,2.9140625,14.16015625,1.8095703125C13.0546875,1.8095703125,12.16015625,2.705078125,12.16015625,3.8095703125" id="stroke-shape-render-6-5fff5482-f1a7-80f0-8008-201c06954b70-0" style="fill: none; stroke-width: 4; stroke: rgb(205, 205, 205); stroke-opacity: 1;"/></defs><use href="#stroke-shape-render-6-5fff5482-f1a7-80f0-8008-201c06954b70-0" clip-path="url('#inner-stroke-render-6-5fff5482-f1a7-80f0-8008-201c06954b70-0')"/></g></g></g></g></g></g></g></g></g></g></svg>