<svg width="24" xmlns="http://www.w3.org/2000/svg" height="24" id="screenshot-5fff5482-f1a7-80f0-8008-201c06ab36de" viewBox="0 0 24 24" xmlns:xlink="http://www.w3.org/1999/xlink" fill="none" version="1.1"><g id="shape-5fff5482-f1a7-80f0-8008-201c06ab36de"><defs><clipPath id="frame-clip-5fff5482-f1a7-80f0-8008-201c06ab36de-render-1" class="frame-clip frame-clip-def"><rect rx="0" ry="0" x="0" y="0" width="24" height="24" transform="matrix(1.000000, 0.000000, 0.000000, 1.000000, 0.000000, 0.000000)"/></clipPath></defs><g class="frame-container-wrapper"><g class="frame-container-blur"><g class="frame-container-shadows"><g clip-path="url(#frame-clip-5fff5482-f1a7-80f0-8008-201c06ab36de-render-1)" fill="none"><g class="fills" id="fills-5fff5482-f1a7-80f0-8008-201c06ab36de"><rect rx="0" ry="0" x="0" y="0" width="24" height="24" transform="matrix(1.000000, 0.000000, 0.000000, 1.000000, 0.000000, 0.000000)" class="frame-background"/></g><g class="frame-children"><g id="shape-5fff5482-f1a7-80f0-8008-201c06aa50ff" width="24" class="icon icon-tabler icons-tabler-outline icon-tabler-brand-google-play" height="24" rx="0" ry="0" style="fill: rgb(0, 0, 0);"><g id="shape-5fff5482-f1a7-80f0-8008-201c06aa8315" style="display: none;"><g class="fills" id="fills-5fff5482-f1a7-80f0-8008-201c06aa8315"><rect width="24" height="24" x="0.16064769172953675" stroke-linejoin="round" transform="matrix(1.000000, 0.000000, 0.000000, 1.000000, 0.000000, 0.000000)" style="fill: none;" ry="0" fill="none" stroke-linecap="round" rx="0" y="-0.19038699295106198"/></g><g fill="none" stroke-linejoin="round" stroke-linecap="round" id="strokes-2d25fc8f-15b1-80b5-8008-28a4f1c11f11-5fff5482-f1a7-80f0-8008-201c06aa8315" class="strokes"><g class="inner-stroke-shape" transform="matrix(1.000000, 0.000000, 0.000000, 1.000000, 0.000000, 0.000000)"><defs><clipPath id="inner-stroke-render-3-5fff5482-f1a7-80f0-8008-201c06aa8315-0"><use href="#stroke-shape-render-3-5fff5482-f1a7-80f0-8008-201c06aa8315-0"/></clipPath><rect rx="0" ry="0" x="0.16064769172953675" y="-0.19038699295106198" width="24" height="24" id="stroke-shape-render-3-5fff5482-f1a7-80f0-8008-201c06aa8315-0" style="fill: none; stroke-width: 4; stroke: rgb(205, 205, 205); stroke-opacity: 1;"/></defs><use href="#stroke-shape-render-3-5fff5482-f1a7-80f0-8008-201c06aa8315-0" clip-path="url('#inner-stroke-render-3-5fff5482-f1a7-80f0-8008-201c06aa8315-0')"/></g></g></g><g id="shape-5fff5482-f1a7-80f0-8008-201c06aad3a5"><g class="fills" id="fills-5fff5482-f1a7-80f0-8008-201c06aad3a5"><path d="M0.16015625,-0.1904296875L24.16015625,-0.1904296875L24.16015625,23.8095703125L0.16015625,23.8095703125L0.16015625,-0.1904296875" stroke="none" fill="none" stroke-linejoin="round" stroke-linecap="round" stroke-width="2" style="fill: none;"/></g></g><g id="shape-5fff5482-f1a7-80f0-8008-201c06aad3a6"><g class="fills" id="fills-5fff5482-f1a7-80f0-8008-201c06aad3a6"><path d="M4.16015625,3.51953125L4.16015625,20.099609375C4.16015625,20.349609375,4.29296875,20.58056640625,4.51171875,20.70556640625C4.7265625,20.83056640625,4.9921875,20.83056640625,5.2109375,20.70556640625L19.83203125,12.28564453125C20.00390625,12.187255859375,20.109375,12.005615234375,20.109375,11.80908203125C20.109375,11.612548828125,20.00390625,11.4306640625,19.83203125,11.33251953125L5.2109375,2.91357421875C4.9921875,2.78857421875,4.7265625,2.78857421875,4.51171875,2.913818359375C4.29296875,3.0390625,4.16015625,3.270263671875,4.16015625,3.5205078125L4.16015625,3.51953125" fill="none" stroke-linejoin="round" stroke-linecap="round" style="fill: none;"/></g><g fill="none" stroke-linejoin="round" stroke-linecap="round" id="strokes-2d25fc8f-15b1-80b5-8008-28a4f1c2cfc0-5fff5482-f1a7-80f0-8008-201c06aad3a6" class="strokes"><g class="inner-stroke-shape"><defs><clipPath id="inner-stroke-render-5-5fff5482-f1a7-80f0-8008-201c06aad3a6-0"><use href="#stroke-shape-render-5-5fff5482-f1a7-80f0-8008-201c06aad3a6-0"/></clipPath><path d="M4.16015625,3.51953125L4.16015625,20.099609375C4.16015625,20.349609375,4.29296875,20.58056640625,4.51171875,20.70556640625C4.7265625,20.83056640625,4.9921875,20.83056640625,5.2109375,20.70556640625L19.83203125,12.28564453125C20.00390625,12.187255859375,20.109375,12.005615234375,20.109375,11.80908203125C20.109375,11.612548828125,20.00390625,11.4306640625,19.83203125,11.33251953125L5.2109375,2.91357421875C4.9921875,2.78857421875,4.7265625,2.78857421875,4.51171875,2.913818359375C4.29296875,3.0390625,4.16015625,3.270263671875,4.16015625,3.5205078125L4.16015625,3.51953125" id="stroke-shape-render-5-5fff5482-f1a7-80f0-8008-201c06aad3a6-0" style="fill: none; stroke-width: 4; stroke: rgb(205, 205, 205); stroke-opacity: 1;"/></defs><use href="#stroke-shape-render-5-5fff5482-f1a7-80f0-8008-201c06aad3a6-0" clip-path="url('#inner-stroke-render-5-5fff5482-f1a7-80f0-8008-201c06aad3a6-0')"/></g></g></g><g id="shape-5fff5482-f1a7-80f0-8008-201c06ab36dc"><g class="fills" id="fills-5fff5482-f1a7-80f0-8008-201c06ab36dc"><path d="M15.16015625,8.8095703125L4.66015625,20.3095703125" fill="none" stroke-linejoin="round" stroke-linecap="round" style="fill: none;"/></g><g fill="none" stroke-linejoin="round" stroke-linecap="round" id="strokes-2d25fc8f-15b1-80b5-8008-28a4f1c3581b-5fff5482-f1a7-80f0-8008-201c06ab36dc" class="strokes"><g class="stroke-shape"><path d="M15.16015625,8.8095703125L4.66015625,20.3095703125" style="fill: none; stroke-width: 2; stroke: rgb(205, 205, 205); stroke-opacity: 1;"/></g></g></g><g id="shape-5fff5482-f1a7-80f0-8008-201c06ab36dd"><g class="fills" id="fills-5fff5482-f1a7-80f0-8008-201c06ab36dd"><path d="M4.66015625,3.3095703125L15.16015625,14.8095703125" fill="none" stroke-linejoin="round" stroke-linecap="round" style="fill: none;"/></g><g fill="none" stroke-linejoin="round" stroke-linecap="round" id="strokes-2d25fc8f-15b1-80b5-8008-28a4f1c38920-5fff5482-f1a7-80f0-8008-201c06ab36dd" class="strokes"><g class="stroke-shape"><path d="M4.66015625,3.3095703125L15.16015625,14.8095703125" style="fill: none; stroke-width: 2; stroke: rgb(205, 205, 205); stroke-opacity: 1;"/></g></g></g></g></g></g></g></g></g></g></svg>