<svg width="24" xmlns="http://www.w3.org/2000/svg" height="24" id="screenshot-5fff5482-f1a7-80f0-8008-201c06840fc9" viewBox="0 0 24 24" xmlns:xlink="http://www.w3.org/1999/xlink" fill="none" version="1.1"><g id="shape-5fff5482-f1a7-80f0-8008-201c06840fc9"><defs><clipPath id="frame-clip-5fff5482-f1a7-80f0-8008-201c06840fc9-render-1" class="frame-clip frame-clip-def"><rect rx="0" ry="0" x="0" y="0" width="24" height="24" transform="matrix(1.000000, 0.000000, 0.000000, 1.000000, 0.000000, 0.000000)"/></clipPath></defs><g class="frame-container-wrapper"><g class="frame-container-blur"><g class="frame-container-shadows"><g clip-path="url(#frame-clip-5fff5482-f1a7-80f0-8008-201c06840fc9-render-1)" fill="none"><g class="fills" id="fills-5fff5482-f1a7-80f0-8008-201c06840fc9"><rect rx="0" ry="0" x="0" y="0" width="24" height="24" transform="matrix(1.000000, 0.000000, 0.000000, 1.000000, 0.000000, 0.000000)" class="frame-background"/></g><g class="frame-children"><g id="shape-5fff5482-f1a7-80f0-8008-201c06833862" width="24" class="icon icon-tabler icons-tabler-outline icon-tabler-creative-commons-nc" height="24" rx="0" ry="0" style="fill: rgb(0, 0, 0);"><g id="shape-5fff5482-f1a7-80f0-8008-201c068389aa" style="display: none;"><g class="fills" id="fills-5fff5482-f1a7-80f0-8008-201c068389aa"><rect width="24" height="24" x="0.16064769172953675" stroke-linejoin="round" transform="matrix(1.000000, 0.000000, 0.000000, 1.000000, 0.000000, 0.000000)" style="fill: none;" ry="0" fill="none" stroke-linecap="round" rx="0" y="-0.19038699295106198"/></g><g fill="none" stroke-linejoin="round" stroke-linecap="round" id="strokes-e600ad28-4244-806d-8008-28a53a11d749-5fff5482-f1a7-80f0-8008-201c068389aa" class="strokes"><g class="inner-stroke-shape" transform="matrix(1.000000, 0.000000, 0.000000, 1.000000, 0.000000, 0.000000)"><defs><clipPath id="inner-stroke-render-3-5fff5482-f1a7-80f0-8008-201c068389aa-0"><use href="#stroke-shape-render-3-5fff5482-f1a7-80f0-8008-201c068389aa-0"/></clipPath><rect rx="0" ry="0" x="0.16064769172953675" y="-0.19038699295106198" width="24" height="24" id="stroke-shape-render-3-5fff5482-f1a7-80f0-8008-201c068389aa-0" style="fill: none; stroke-width: 4; stroke: rgb(205, 205, 205); stroke-opacity: 1;"/></defs><use href="#stroke-shape-render-3-5fff5482-f1a7-80f0-8008-201c068389aa-0" clip-path="url('#inner-stroke-render-3-5fff5482-f1a7-80f0-8008-201c068389aa-0')"/></g></g></g><g id="shape-5fff5482-f1a7-80f0-8008-201c068389ab"><g class="fills" id="fills-5fff5482-f1a7-80f0-8008-201c068389ab"><path d="M0.16015625,-0.1904296875L24.16015625,-0.1904296875L24.16015625,23.8095703125L0.16015625,23.8095703125L0.16015625,-0.1904296875" stroke="none" fill="none" stroke-linejoin="round" stroke-linecap="round" stroke-width="2" style="fill: none;"/></g></g><g id="shape-5fff5482-f1a7-80f0-8008-201c0683c057"><g class="fills" id="fills-5fff5482-f1a7-80f0-8008-201c0683c057"><path d="M3.16015625,11.8095703125C3.16015625,16.780029296875,7.19140625,20.8095703125,12.16015625,20.8095703125C17.12890625,20.8095703125,21.16015625,16.780029296875,21.16015625,11.8095703125C21.16015625,6.839111328125,17.12890625,2.8095703125,12.16015625,2.8095703125C7.19140625,2.8095703125,3.16015625,6.839111328125,3.16015625,11.8095703125" fill="none" stroke-linejoin="round" stroke-linecap="round" style="fill: none;"/></g><g fill="none" stroke-linejoin="round" stroke-linecap="round" id="strokes-e600ad28-4244-806d-8008-28a53a1340f0-5fff5482-f1a7-80f0-8008-201c0683c057" class="strokes"><g class="inner-stroke-shape"><defs><clipPath id="inner-stroke-render-5-5fff5482-f1a7-80f0-8008-201c0683c057-0"><use href="#stroke-shape-render-5-5fff5482-f1a7-80f0-8008-201c0683c057-0"/></clipPath><path d="M3.16015625,11.8095703125C3.16015625,16.780029296875,7.19140625,20.8095703125,12.16015625,20.8095703125C17.12890625,20.8095703125,21.16015625,16.780029296875,21.16015625,11.8095703125C21.16015625,6.839111328125,17.12890625,2.8095703125,12.16015625,2.8095703125C7.19140625,2.8095703125,3.16015625,6.839111328125,3.16015625,11.8095703125" id="stroke-shape-render-5-5fff5482-f1a7-80f0-8008-201c0683c057-0" style="fill: none; stroke-width: 4; stroke: rgb(205, 205, 205); stroke-opacity: 1;"/></defs><use href="#stroke-shape-render-5-5fff5482-f1a7-80f0-8008-201c0683c057-0" clip-path="url('#inner-stroke-render-5-5fff5482-f1a7-80f0-8008-201c0683c057-0')"/></g></g></g><g id="shape-5fff5482-f1a7-80f0-8008-201c0683c058"><g class="fills" id="fills-5fff5482-f1a7-80f0-8008-201c0683c058"><path d="M15.16015625,8.8095703125L10.66015625,8.8095703125C9.83203125,8.8095703125,9.16015625,9.481201171875,9.16015625,10.3095703125C9.16015625,11.137939453125,9.83203125,11.8095703125,10.66015625,11.8095703125L13.66015625,11.8095703125C14.48828125,11.8095703125,15.16015625,12.481201171875,15.16015625,13.3095703125C15.16015625,14.137939453125,14.48828125,14.8095703125,13.66015625,14.8095703125L9.16015625,14.8095703125" fill="none" stroke-linejoin="round" stroke-linecap="round" style="fill: none;"/></g><g fill="none" stroke-linejoin="round" stroke-linecap="round" id="strokes-e600ad28-4244-806d-8008-28a53a13feee-5fff5482-f1a7-80f0-8008-201c0683c058" class="strokes"><g class="stroke-shape"><path d="M15.16015625,8.8095703125L10.66015625,8.8095703125C9.83203125,8.8095703125,9.16015625,9.481201171875,9.16015625,10.3095703125C9.16015625,11.137939453125,9.83203125,11.8095703125,10.66015625,11.8095703125L13.66015625,11.8095703125C14.48828125,11.8095703125,15.16015625,12.481201171875,15.16015625,13.3095703125C15.16015625,14.137939453125,14.48828125,14.8095703125,13.66015625,14.8095703125L9.16015625,14.8095703125" style="fill: none; stroke-width: 2; stroke: rgb(205, 205, 205); stroke-opacity: 1;"/></g></g></g><g id="shape-5fff5482-f1a7-80f0-8008-201c0683c059"><g class="fills" id="fills-5fff5482-f1a7-80f0-8008-201c0683c059"><path d="M12.16015625,6.8095703125L12.16015625,8.8095703125" fill="none" stroke-linejoin="round" stroke-linecap="round" style="fill: none;"/></g><g fill="none" stroke-linejoin="round" stroke-linecap="round" id="strokes-e600ad28-4244-806d-8008-28a53a1477f3-5fff5482-f1a7-80f0-8008-201c0683c059" class="strokes"><g class="stroke-shape"><path d="M12.16015625,6.8095703125L12.16015625,8.8095703125" style="fill: none; stroke-width: 2; stroke: rgb(205, 205, 205); stroke-opacity: 1;"/></g></g></g><g id="shape-5fff5482-f1a7-80f0-8008-201c0683c05a"><g class="fills" id="fills-5fff5482-f1a7-80f0-8008-201c0683c05a"><path d="M12.16015625,14.8095703125L12.16015625,16.8095703125" fill="none" stroke-linejoin="round" stroke-linecap="round" style="fill: none;"/></g><g fill="none" stroke-linejoin="round" stroke-linecap="round" id="strokes-e600ad28-4244-806d-8008-28a53a149962-5fff5482-f1a7-80f0-8008-201c0683c05a" class="strokes"><g class="stroke-shape"><path d="M12.16015625,14.8095703125L12.16015625,16.8095703125" style="fill: none; stroke-width: 2; stroke: rgb(205, 205, 205); stroke-opacity: 1;"/></g></g></g><g id="shape-5fff5482-f1a7-80f0-8008-201c0683c05b"><g class="fills" id="fills-5fff5482-f1a7-80f0-8008-201c0683c05b"><path d="M6.16015625,5.8095703125L9.16015625,8.8095703125" fill="none" stroke-linejoin="round" stroke-linecap="round" style="fill: none;"/></g><g fill="none" stroke-linejoin="round" stroke-linecap="round" id="strokes-e600ad28-4244-806d-8008-28a53a15003c-5fff5482-f1a7-80f0-8008-201c0683c05b" class="strokes"><g class="stroke-shape"><path d="M6.16015625,5.8095703125L9.16015625,8.8095703125" style="fill: none; stroke-width: 2; stroke: rgb(205, 205, 205); stroke-opacity: 1;"/></g></g></g><g id="shape-5fff5482-f1a7-80f0-8008-201c06840fc8"><g class="fills" id="fills-5fff5482-f1a7-80f0-8008-201c06840fc8"><path d="M15.16015625,14.8095703125L18.16015625,17.8095703125" fill="none" stroke-linejoin="round" stroke-linecap="round" style="fill: none;"/></g><g fill="none" stroke-linejoin="round" stroke-linecap="round" id="strokes-e600ad28-4244-806d-8008-28a53a154653-5fff5482-f1a7-80f0-8008-201c06840fc8" class="strokes"><g class="stroke-shape"><path d="M15.16015625,14.8095703125L18.16015625,17.8095703125" style="fill: none; stroke-width: 2; stroke: rgb(205, 205, 205); stroke-opacity: 1;"/></g></g></g></g></g></g></g></g></g></g></svg>