<svg width="24" xmlns="http://www.w3.org/2000/svg" height="24" id="screenshot-5fff5482-f1a7-80f0-8008-201c068c84a5" viewBox="0 0 24 24" xmlns:xlink="http://www.w3.org/1999/xlink" fill="none" version="1.1"><g id="shape-5fff5482-f1a7-80f0-8008-201c068c84a5"><defs><clipPath id="frame-clip-5fff5482-f1a7-80f0-8008-201c068c84a5-render-1" class="frame-clip frame-clip-def"><rect rx="0" ry="0" x="0" y="0" width="24" height="24" transform="matrix(1.000000, 0.000000, 0.000000, 1.000000, 0.000000, 0.000000)"/></clipPath></defs><g class="frame-container-wrapper"><g class="frame-container-blur"><g class="frame-container-shadows"><g clip-path="url(#frame-clip-5fff5482-f1a7-80f0-8008-201c068c84a5-render-1)" fill="none"><g class="fills" id="fills-5fff5482-f1a7-80f0-8008-201c068c84a5"><rect rx="0" ry="0" x="0" y="0" width="24" height="24" transform="matrix(1.000000, 0.000000, 0.000000, 1.000000, 0.000000, 0.000000)" class="frame-background"/></g><g class="frame-children"><g id="shape-5fff5482-f1a7-80f0-8008-201c068c0fe8" width="24" class="icon icon-tabler icons-tabler-outline icon-tabler-license" height="24" rx="0" ry="0" style="fill: rgb(0, 0, 0);"><g id="shape-5fff5482-f1a7-80f0-8008-201c068c4185" style="display: none;"><g class="fills" id="fills-5fff5482-f1a7-80f0-8008-201c068c4185"><rect width="24" height="24" x="0.16064769172953675" stroke-linejoin="round" transform="matrix(1.000000, 0.000000, 0.000000, 1.000000, 0.000000, 0.000000)" style="fill: none;" ry="0" fill="none" stroke-linecap="round" rx="0" y="-0.19038699295106198"/></g><g fill="none" stroke-linejoin="round" stroke-linecap="round" id="strokes-88cb2c8c-bd61-8082-8008-28a522b362e9-5fff5482-f1a7-80f0-8008-201c068c4185" class="strokes"><g class="inner-stroke-shape" transform="matrix(1.000000, 0.000000, 0.000000, 1.000000, 0.000000, 0.000000)"><defs><clipPath id="inner-stroke-render-3-5fff5482-f1a7-80f0-8008-201c068c4185-0"><use href="#stroke-shape-render-3-5fff5482-f1a7-80f0-8008-201c068c4185-0"/></clipPath><rect rx="0" ry="0" x="0.16064769172953675" y="-0.19038699295106198" width="24" height="24" id="stroke-shape-render-3-5fff5482-f1a7-80f0-8008-201c068c4185-0" style="fill: none; stroke-width: 4; stroke: rgb(205, 205, 205); stroke-opacity: 1;"/></defs><use href="#stroke-shape-render-3-5fff5482-f1a7-80f0-8008-201c068c4185-0" clip-path="url('#inner-stroke-render-3-5fff5482-f1a7-80f0-8008-201c068c4185-0')"/></g></g></g><g id="shape-5fff5482-f1a7-80f0-8008-201c068c4186"><g class="fills" id="fills-5fff5482-f1a7-80f0-8008-201c068c4186"><path d="M0.16015625,-0.1904296875L24.16015625,-0.1904296875L24.16015625,23.8095703125L0.16015625,23.8095703125L0.16015625,-0.1904296875" stroke="none" fill="none" stroke-linejoin="round" stroke-linecap="round" stroke-width="2" style="fill: none;"/></g></g><g id="shape-5fff5482-f1a7-80f0-8008-201c068c84a2"><g class="fills" id="fills-5fff5482-f1a7-80f0-8008-201c068c84a2"><path d="M15.16015625,20.8095703125L6.16015625,20.8095703125C4.50390625,20.8095703125,3.16015625,19.46630859375,3.16015625,17.8095703125L3.16015625,16.8095703125L13.16015625,16.8095703125L13.16015625,18.8095703125C13.16015625,19.9140625,14.0546875,20.8095703125,15.16015625,20.8095703125C16.265625,20.8095703125,17.16015625,19.9140625,17.16015625,18.8095703125L17.16015625,4.8095703125C17.16015625,3.705078125,18.0546875,2.8095703125,19.16015625,2.8095703125C20.265625,2.8095703125,21.16015625,3.705078125,21.16015625,4.8095703125C21.16015625,5.9140625,20.265625,6.8095703125,19.16015625,6.8095703125L17.16015625,6.8095703125M19.16015625,2.8095703125L8.16015625,2.8095703125C6.50390625,2.8095703125,5.16015625,4.15283203125,5.16015625,5.8095703125L5.16015625,16.8095703125" fill="none" stroke-linejoin="round" stroke-linecap="round" style="fill: none;"/></g><g fill="none" stroke-linejoin="round" stroke-linecap="round" id="strokes-88cb2c8c-bd61-8082-8008-28a522b52602-5fff5482-f1a7-80f0-8008-201c068c84a2" class="strokes"><g class="stroke-shape"><path d="M15.16015625,20.8095703125L6.16015625,20.8095703125C4.50390625,20.8095703125,3.16015625,19.46630859375,3.16015625,17.8095703125L3.16015625,16.8095703125L13.16015625,16.8095703125L13.16015625,18.8095703125C13.16015625,19.9140625,14.0546875,20.8095703125,15.16015625,20.8095703125C16.265625,20.8095703125,17.16015625,19.9140625,17.16015625,18.8095703125L17.16015625,4.8095703125C17.16015625,3.705078125,18.0546875,2.8095703125,19.16015625,2.8095703125C20.265625,2.8095703125,21.16015625,3.705078125,21.16015625,4.8095703125C21.16015625,5.9140625,20.265625,6.8095703125,19.16015625,6.8095703125L17.16015625,6.8095703125M19.16015625,2.8095703125L8.16015625,2.8095703125C6.50390625,2.8095703125,5.16015625,4.15283203125,5.16015625,5.8095703125L5.16015625,16.8095703125" style="fill: none; stroke-width: 2; stroke: rgb(205, 205, 205); stroke-opacity: 1;"/></g></g></g><g id="shape-5fff5482-f1a7-80f0-8008-201c068c84a3"><g class="fills" id="fills-5fff5482-f1a7-80f0-8008-201c068c84a3"><path d="M9.16015625,6.8095703125L13.16015625,6.8095703125" fill="none" stroke-linejoin="round" stroke-linecap="round" style="fill: none;"/></g><g fill="none" stroke-linejoin="round" stroke-linecap="round" id="strokes-88cb2c8c-bd61-8082-8008-28a522b592f4-5fff5482-f1a7-80f0-8008-201c068c84a3" class="strokes"><g class="stroke-shape"><path d="M9.16015625,6.8095703125L13.16015625,6.8095703125" style="fill: none; stroke-width: 2; stroke: rgb(205, 205, 205); stroke-opacity: 1;"/></g></g></g><g id="shape-5fff5482-f1a7-80f0-8008-201c068c84a4"><g class="fills" id="fills-5fff5482-f1a7-80f0-8008-201c068c84a4"><path d="M9.16015625,10.8095703125L13.16015625,10.8095703125" fill="none" stroke-linejoin="round" stroke-linecap="round" style="fill: none;"/></g><g fill="none" stroke-linejoin="round" stroke-linecap="round" id="strokes-88cb2c8c-bd61-8082-8008-28a522b60694-5fff5482-f1a7-80f0-8008-201c068c84a4" class="strokes"><g class="stroke-shape"><path d="M9.16015625,10.8095703125L13.16015625,10.8095703125" style="fill: none; stroke-width: 2; stroke: rgb(205, 205, 205); stroke-opacity: 1;"/></g></g></g></g></g></g></g></g></g></g></svg>