<svg width="28" xmlns="http://www.w3.org/2000/svg" height="28" id="screenshot-cea7a17f-99ee-80ce-8008-20fbd6261921" viewBox="0 0 28 28" xmlns:xlink="http://www.w3.org/1999/xlink" fill="none" version="1.1"><g id="shape-cea7a17f-99ee-80ce-8008-20fbd6261921"><defs><clipPath id="frame-clip-cea7a17f-99ee-80ce-8008-20fbd6261921-render-1" class="frame-clip frame-clip-def"><rect rx="0" ry="0" x="0" y="0" width="28" height="28" transform="matrix(1.000000, 0.000000, 0.000000, 1.000000, 0.000000, 0.000000)"/></clipPath></defs><g class="frame-container-wrapper"><g class="frame-container-blur"><g class="frame-container-shadows"><g clip-path="url(#frame-clip-cea7a17f-99ee-80ce-8008-20fbd6261921-render-1)" fill="none"><g class="fills" id="fills-cea7a17f-99ee-80ce-8008-20fbd6261921"><rect rx="0" ry="0" x="0" y="0" width="28" height="28" transform="matrix(1.000000, 0.000000, 0.000000, 1.000000, 0.000000, 0.000000)" class="frame-background"/></g><g class="frame-children"><g id="shape-cea7a17f-99ee-80ce-8008-20fbd625459f" width="800" height="800" rx="0" ry="0" style="fill: rgb(0, 0, 0);"><defs><clipPath id="render-2-a" class="svg-def" transform="matrix(1.000000, 0.000000, 0.000000, 1.000000, 0.000000, 0.000000)"><rect width="28" height="20" rx="2" fill="#fff"/></clipPath><mask y1="0" width="28" maskUnits="userSpaceOnUse" x1="0" height="20" class="svg-def" x="0" id="render-2-b" style="mask-type: alpha;" data-old-y="0" data-old-width="28" data-old-x="0" y="0" x2="28" y2="20" data-old-height="20"><g class="svg-mask-wrapper" transform="matrix(1.000000, 0.000000, 0.000000, 1.000000, 0.000000, 0.000000)"><rect x=".25" y=".25" width="27.5" height="19.5" rx="1.75" fill="#fff" stroke="#fff" stroke-width=".5"/></g></mask></defs><g id="shape-cea7a17f-99ee-80ce-8008-20fbd625df4e" style="display: none;"><g class="fills" id="fills-cea7a17f-99ee-80ce-8008-20fbd625df4e"><rect width="28" height="28" x="0.0827167443712824" transform="matrix(1.000000, 0.000000, 0.000000, 1.000000, 0.000000, 0.000000)" style="fill: none;" ry="0" fill="none" rx="0" y="-3.5452454177434447"/></g></g><g id="shape-cea7a17f-99ee-80ce-8008-20fbd625df4f" clip-path="url(#render-4-a)" rx="0" ry="0" style="fill: rgb(0, 0, 0);"><defs><clipPath id="render-4-a" class="svg-def" transform="matrix(1.000000, 0.000000, 0.000000, 1.000000, 0.082717, 0.454755)"><rect width="28" height="20" rx="2" fill="#fff"/></clipPath></defs><g id="shape-cea7a17f-99ee-80ce-8008-20fbd626191d"><g class="fills" id="fills-cea7a17f-99ee-80ce-8008-20fbd626191d"><rect rx="1.75" ry="1.75" x="0.3327167443712824" y="0.7047545822565553" transform="matrix(1.000000, 0.000000, 0.000000, 1.000000, 0.000000, 0.000000)" width="27.5" height="19.5" style="fill: rgb(255, 255, 255);"/></g><g id="strokes-13eda133-ebf1-807b-8008-28a5ad012921-cea7a17f-99ee-80ce-8008-20fbd626191d" class="strokes"><g class="stroke-shape"><rect rx="1.75" ry="1.75" x="0.3327167443712824" y="0.7047545822565553" transform="matrix(1.000000, 0.000000, 0.000000, 1.000000, 0.000000, 0.000000)" width="27.5" height="19.5" style="fill: none; stroke-width: 0.5; stroke: rgb(245, 245, 245); stroke-opacity: 1;"/></g></g></g><g id="shape-cea7a17f-99ee-80ce-8008-20fbd626191e" mask="url(#render-6-b)" rx="0" ry="0" style="fill: rgb(0, 0, 0);"><defs><mask y1="0.4547545822565553" width="28" maskUnits="userSpaceOnUse" x1="0.0827167443712824" height="20" class="svg-def" x="0.0827167443712824" id="render-6-b" style="mask-type: alpha;" data-old-y="0.4547545822565553" data-old-width="28" data-old-x="0.0827167443712824" y="0.4547545822565553" x2="28.082716744371282" y2="20.454754582256555" data-old-height="20"><g class="svg-mask-wrapper" transform="matrix(1.000000, 0.000000, 0.000000, 1.000000, 0.082717, 0.454755)"><rect x=".25" y=".25" width="27.5" height="19.5" rx="1.75" fill="#fff" stroke="#fff" stroke-width=".5"/></g></mask></defs><g id="shape-cea7a17f-99ee-80ce-8008-20fbd626191f"><g class="fills" id="fills-cea7a17f-99ee-80ce-8008-20fbd626191f"><path d="M0.08203125,20.454833984375L28.08203125,20.454833984375L28.08203125,9.7880859375L0.08203125,9.7880859375L0.08203125,20.454833984375Z" fill-rule="evenodd" clip-rule="evenodd" style="fill: rgb(235, 42, 80);"/></g></g></g></g><g id="shape-cea7a17f-99ee-80ce-8008-20fbd6261920"><defs fill="none" style="fill: rgb(0, 0, 0);"/></g></g></g></g></g></g></g></g></svg>