<svg width="28" xmlns="http://www.w3.org/2000/svg" height="28" id="screenshot-cea7a17f-99ee-80ce-8008-20fbd5fe430e" viewBox="0 0 28 28" xmlns:xlink="http://www.w3.org/1999/xlink" fill="none" version="1.1"><g id="shape-cea7a17f-99ee-80ce-8008-20fbd5fe430e"><defs><clipPath id="frame-clip-cea7a17f-99ee-80ce-8008-20fbd5fe430e-render-1" class="frame-clip frame-clip-def"><rect rx="0" ry="0" x="0" y="0" width="28" height="28" transform="matrix(1.000000, 0.000000, 0.000000, 1.000000, 0.000000, 0.000000)"/></clipPath></defs><g class="frame-container-wrapper"><g class="frame-container-blur"><g class="frame-container-shadows"><g clip-path="url(#frame-clip-cea7a17f-99ee-80ce-8008-20fbd5fe430e-render-1)" fill="none"><g class="fills" id="fills-cea7a17f-99ee-80ce-8008-20fbd5fe430e"><rect rx="0" ry="0" x="0" y="0" width="28" height="28" transform="matrix(1.000000, 0.000000, 0.000000, 1.000000, 0.000000, 0.000000)" class="frame-background"/></g><g class="frame-children"><g id="shape-cea7a17f-99ee-80ce-8008-20fbd5fb6e40" width="800" height="800" rx="0" ry="0" style="fill: rgb(0, 0, 0);"><defs><linearGradient x1="1.333" y1="1.333" x2="1.333" y2="8" id="render-2-d" gradientUnits="userSpaceOnUse" class="svg-def" gradientTransform="matrix(1.000000, 0.000000, 0.000000, 1.000000, 0.000000, 0.000000)"><stop stop-color="#fff"/><stop offset="1" stop-color="#F0F0F0"/></linearGradient><clipPath id="render-2-a" class="svg-def" transform="matrix(1.000000, 0.000000, 0.000000, 1.000000, 0.000000, 0.000000)"><rect width="28" height="20" rx="2" fill="#fff"/></clipPath><mask y1="0" width="28" maskUnits="userSpaceOnUse" x1="0" height="20" class="svg-def" x="0" id="render-2-b" style="mask-type: alpha;" data-old-y="0" data-old-width="28" data-old-x="0" y="0" x2="28" y2="20" data-old-height="20"><g class="svg-mask-wrapper" transform="matrix(1.000000, 0.000000, 0.000000, 1.000000, 0.000000, 0.000000)"><rect width="28" height="20" rx="2" fill="#fff"/></g></mask><filter y1="1.333" filterUnits="userSpaceOnUse" width="9.333" x1="1.333" height="7.667" color-interpolation-filters="sRGB" class="svg-def" x="1.333" id="render-2-c" data-old-y="1.333" data-old-width="9.333" data-old-x="1.333" y="1.333" x2="10.666" y2="9" data-old-height="7.667"><feFlood flood-opacity="0" result="BackgroundImageFix"/><feColorMatrix in="SourceAlpha" values="0 0 0 0 0 0 0 0 0 0 0 0 0 0 0 0 0 0 127 0" result="hardAlpha"/><feOffset dy="1"/><feColorMatrix values="0 0 0 0 0 0 0 0 0 0 0 0 0 0 0 0 0 0 0.06 0"/><feBlend in2="BackgroundImageFix" result="effect1_dropShadow_503_3486"/><feBlend in="SourceGraphic" in2="effect1_dropShadow_503_3486" result="shape"/></filter></defs><g id="shape-cea7a17f-99ee-80ce-8008-20fbd5fca1ff" style="display: none;"><g class="fills" id="fills-cea7a17f-99ee-80ce-8008-20fbd5fca1ff"><rect width="28" height="28" x="0.0827167443712824" transform="matrix(1.000000, 0.000000, 0.000000, 1.000000, 0.000000, 0.000000)" style="fill: none;" ry="0" fill="none" rx="0" y="-3.5452454177434447"/></g></g><g id="shape-cea7a17f-99ee-80ce-8008-20fbd5fcd2e6" clip-path="url(#render-4-a)" rx="0" ry="0" style="fill: rgb(0, 0, 0);"><defs><clipPath id="render-4-a" class="svg-def" transform="matrix(1.000000, 0.000000, 0.000000, 1.000000, 0.082717, 0.454755)"><rect width="28" height="20" rx="2" fill="#fff"/></clipPath></defs><g id="shape-cea7a17f-99ee-80ce-8008-20fbd5fcd2e7"><g class="fills" id="fills-cea7a17f-99ee-80ce-8008-20fbd5fcd2e7"><rect rx="2" ry="2" x="0.0827167443712824" y="0.4547545822565553" transform="matrix(1.000000, 0.000000, 0.000000, 1.000000, 0.000000, 0.000000)" width="28" height="20" style="fill: rgb(255, 255, 255);"/></g></g><g id="shape-cea7a17f-99ee-80ce-8008-20fbd5fd3f3e" mask="url(#render-6-b)" rx="0" ry="0" style="fill: rgb(0, 0, 0);"><defs><mask y1="0.4547545822565553" width="28" maskUnits="userSpaceOnUse" x1="0.0827167443712824" height="20" class="svg-def" x="0.0827167443712824" id="render-6-b" style="mask-type: alpha;" data-old-y="0.4547545822565553" data-old-width="28" data-old-x="0.0827167443712824" y="0.4547545822565553" x2="28.082716744371282" y2="20.454754582256555" data-old-height="20"><g class="svg-mask-wrapper" transform="matrix(1.000000, 0.000000, 0.000000, 1.000000, 0.082717, 0.454755)"><rect width="28" height="20" rx="2" fill="#fff"/></g></mask></defs><g id="shape-cea7a17f-99ee-80ce-8008-20fbd5fda911"><g class="fills" id="fills-cea7a17f-99ee-80ce-8008-20fbd5fda911"><path d="M28.08203125,0.454833984375L0.08203125,0.454833984375L0.08203125,1.7880859375L28.08203125,1.7880859375L28.08203125,0.454833984375ZM28.08203125,3.12158203125L0.08203125,3.12158203125L0.08203125,4.454833984375L28.08203125,4.454833984375L28.08203125,3.12158203125ZM0.08203125,5.7880859375L28.08203125,5.7880859375L28.08203125,7.12158203125L0.08203125,7.12158203125L0.08203125,5.7880859375ZM28.08203125,8.454833984375L0.08203125,8.454833984375L0.08203125,9.7880859375L28.08203125,9.7880859375L28.08203125,8.454833984375ZM0.08203125,11.12158203125L28.08203125,11.12158203125L28.08203125,12.454833984375L0.08203125,12.454833984375L0.08203125,11.12158203125ZM28.08203125,13.7880859375L0.08203125,13.7880859375L0.08203125,15.12158203125L28.08203125,15.12158203125L28.08203125,13.7880859375ZM0.08203125,16.454833984375L28.08203125,16.454833984375L28.08203125,17.7880859375L0.08203125,17.7880859375L0.08203125,16.454833984375ZM28.08203125,19.12158203125L0.08203125,19.12158203125L0.08203125,20.454833984375L28.08203125,20.454833984375L28.08203125,19.12158203125Z" fill-rule="evenodd" clip-rule="evenodd" style="fill: rgb(208, 47, 68);"/></g></g><g id="shape-cea7a17f-99ee-80ce-8008-20fbd5fda912"><g class="fills" id="fills-cea7a17f-99ee-80ce-8008-20fbd5fda912"><rect rx="0" ry="0" x="0.0827167443712824" y="0.4547545822565553" transform="matrix(1.000000, 0.000000, 0.000000, 1.000000, 0.000000, 0.000000)" width="12" height="9.333000000000084" style="fill: rgb(70, 70, 127);"/></g></g><g id="shape-cea7a17f-99ee-80ce-8008-20fbd5fda913" filter="url(#render-9-c)" rx="0" ry="0" style="fill: rgb(0, 0, 0);"><defs><filter y1="1.7877545822565553" filterUnits="userSpaceOnUse" width="9.333" x1="1.4157167443712824" height="7.667" color-interpolation-filters="sRGB" class="svg-def" x="1.4157167443712824" id="render-9-c" data-old-y="1.7877545822565553" data-old-width="9.333" data-old-x="1.4157167443712824" y="1.7877545822565553" x2="10.748716744371283" y2="9.454754582256555" data-old-height="7.667"><feFlood flood-opacity="0" result="BackgroundImageFix"/><feColorMatrix in="SourceAlpha" values="0 0 0 0 0 0 0 0 0 0 0 0 0 0 0 0 0 0 127 0" result="hardAlpha"/><feOffset dy="1"/><feColorMatrix values="0 0 0 0 0 0 0 0 0 0 0 0 0 0 0 0 0 0 0.06 0"/><feBlend in2="BackgroundImageFix" result="effect1_dropShadow_503_3486"/><feBlend in="SourceGraphic" in2="effect1_dropShadow_503_3486" result="shape"/></filter></defs><g id="shape-cea7a17f-99ee-80ce-8008-20fbd5fe0895"><defs><linearGradient x1="1.333" y1="1.333" x2="1.333" y2="8" id="render-10-d" gradientUnits="userSpaceOnUse" gradientTransform="matrix(1.000000, 0.000000, 0.000000, 1.000000, 0.082717, 0.454755)"><stop stop-color="#fff"/><stop offset="1" stop-color="#F0F0F0"/></linearGradient></defs><g class="fills" id="fills-cea7a17f-99ee-80ce-8008-20fbd5fe0895"><path d="M2.75,2.454833984375C2.75,2.822998046875,2.44921875,3.12158203125,2.08203125,3.12158203125C1.71484375,3.12158203125,1.4140625,2.822998046875,1.4140625,2.454833984375C1.4140625,2.086669921875,1.71484375,1.7880859375,2.08203125,1.7880859375C2.44921875,1.7880859375,2.75,2.086669921875,2.75,2.454833984375ZM5.4140625,2.454833984375C5.4140625,2.822998046875,5.1171875,3.12158203125,4.75,3.12158203125C4.37890625,3.12158203125,4.08203125,2.822998046875,4.08203125,2.454833984375C4.08203125,2.086669921875,4.37890625,1.7880859375,4.75,1.7880859375C5.1171875,1.7880859375,5.4140625,2.086669921875,5.4140625,2.454833984375ZM7.4140625,3.12158203125C7.78515625,3.12158203125,8.08203125,2.822998046875,8.08203125,2.454833984375C8.08203125,2.086669921875,7.78515625,1.7880859375,7.4140625,1.7880859375C7.046875,1.7880859375,6.75,2.086669921875,6.75,2.454833984375C6.75,2.822998046875,7.046875,3.12158203125,7.4140625,3.12158203125ZM10.75,2.454833984375C10.75,2.822998046875,10.44921875,3.12158203125,10.08203125,3.12158203125C9.71484375,3.12158203125,9.4140625,2.822998046875,9.4140625,2.454833984375C9.4140625,2.086669921875,9.71484375,1.7880859375,10.08203125,1.7880859375C10.44921875,1.7880859375,10.75,2.086669921875,10.75,2.454833984375ZM3.4140625,4.454833984375C3.78515625,4.454833984375,4.08203125,4.15625,4.08203125,3.7880859375C4.08203125,3.419921875,3.78515625,3.12158203125,3.4140625,3.12158203125C3.046875,3.12158203125,2.75,3.419921875,2.75,3.7880859375C2.75,4.15625,3.046875,4.454833984375,3.4140625,4.454833984375ZM6.75,3.7880859375C6.75,4.15625,6.44921875,4.454833984375,6.08203125,4.454833984375C5.71484375,4.454833984375,5.4140625,4.15625,5.4140625,3.7880859375C5.4140625,3.419921875,5.71484375,3.12158203125,6.08203125,3.12158203125C6.44921875,3.12158203125,6.75,3.419921875,6.75,3.7880859375ZM8.75,4.454833984375C9.1171875,4.454833984375,9.4140625,4.15625,9.4140625,3.7880859375C9.4140625,3.419921875,9.1171875,3.12158203125,8.75,3.12158203125C8.37890625,3.12158203125,8.08203125,3.419921875,8.08203125,3.7880859375C8.08203125,4.15625,8.37890625,4.454833984375,8.75,4.454833984375ZM10.75,5.12158203125C10.75,5.48974609375,10.44921875,5.7880859375,10.08203125,5.7880859375C9.71484375,5.7880859375,9.4140625,5.48974609375,9.4140625,5.12158203125C9.4140625,4.75341796875,9.71484375,4.454833984375,10.08203125,4.454833984375C10.44921875,4.454833984375,10.75,4.75341796875,10.75,5.12158203125ZM7.4140625,5.7880859375C7.78515625,5.7880859375,8.08203125,5.48974609375,8.08203125,5.12158203125C8.08203125,4.75341796875,7.78515625,4.454833984375,7.4140625,4.454833984375C7.046875,4.454833984375,6.75,4.75341796875,6.75,5.12158203125C6.75,5.48974609375,7.046875,5.7880859375,7.4140625,5.7880859375ZM5.4140625,5.12158203125C5.4140625,5.48974609375,5.1171875,5.7880859375,4.75,5.7880859375C4.37890625,5.7880859375,4.08203125,5.48974609375,4.08203125,5.12158203125C4.08203125,4.75341796875,4.37890625,4.454833984375,4.75,4.454833984375C5.1171875,4.454833984375,5.4140625,4.75341796875,5.4140625,5.12158203125ZM2.08203125,5.7880859375C2.44921875,5.7880859375,2.75,5.48974609375,2.75,5.12158203125C2.75,4.75341796875,2.44921875,4.454833984375,2.08203125,4.454833984375C1.71484375,4.454833984375,1.4140625,4.75341796875,1.4140625,5.12158203125C1.4140625,5.48974609375,1.71484375,5.7880859375,2.08203125,5.7880859375ZM4.08203125,6.454833984375C4.08203125,6.822998046875,3.78515625,7.12158203125,3.4140625,7.12158203125C3.046875,7.12158203125,2.75,6.822998046875,2.75,6.454833984375C2.75,6.086669921875,3.046875,5.7880859375,3.4140625,5.7880859375C3.78515625,5.7880859375,4.08203125,6.086669921875,4.08203125,6.454833984375ZM6.08203125,7.12158203125C6.44921875,7.12158203125,6.75,6.822998046875,6.75,6.454833984375C6.75,6.086669921875,6.44921875,5.7880859375,6.08203125,5.7880859375C5.71484375,5.7880859375,5.4140625,6.086669921875,5.4140625,6.454833984375C5.4140625,6.822998046875,5.71484375,7.12158203125,6.08203125,7.12158203125ZM9.4140625,6.454833984375C9.4140625,6.822998046875,9.1171875,7.12158203125,8.75,7.12158203125C8.37890625,7.12158203125,8.08203125,6.822998046875,8.08203125,6.454833984375C8.08203125,6.086669921875,8.37890625,5.7880859375,8.75,5.7880859375C9.1171875,5.7880859375,9.4140625,6.086669921875,9.4140625,6.454833984375ZM10.08203125,8.454833984375C10.44921875,8.454833984375,10.75,8.15625,10.75,7.7880859375C10.75,7.419921875,10.44921875,7.12158203125,10.08203125,7.12158203125C9.71484375,7.12158203125,9.4140625,7.419921875,9.4140625,7.7880859375C9.4140625,8.15625,9.71484375,8.454833984375,10.08203125,8.454833984375ZM8.08203125,7.7880859375C8.08203125,8.15625,7.78515625,8.454833984375,7.4140625,8.454833984375C7.046875,8.454833984375,6.75,8.15625,6.75,7.7880859375C6.75,7.419921875,7.046875,7.12158203125,7.4140625,7.12158203125C7.78515625,7.12158203125,8.08203125,7.419921875,8.08203125,7.7880859375ZM4.75,8.454833984375C5.1171875,8.454833984375,5.4140625,8.15625,5.4140625,7.7880859375C5.4140625,7.419921875,5.1171875,7.12158203125,4.75,7.12158203125C4.37890625,7.12158203125,4.08203125,7.419921875,4.08203125,7.7880859375C4.08203125,8.15625,4.37890625,8.454833984375,4.75,8.454833984375ZM2.75,7.7880859375C2.75,8.15625,2.44921875,8.454833984375,2.08203125,8.454833984375C1.71484375,8.454833984375,1.4140625,8.15625,1.4140625,7.7880859375C1.4140625,7.419921875,1.71484375,7.12158203125,2.08203125,7.12158203125C2.44921875,7.12158203125,2.75,7.419921875,2.75,7.7880859375Z" fill="url(#render-10-d)" fill-rule="evenodd" clip-rule="evenodd" style="fill: url(&quot;#render-10-d&quot;);"/></g></g></g></g></g><g id="shape-cea7a17f-99ee-80ce-8008-20fbd5fe430d"><defs fill="none" style="fill: rgb(0, 0, 0);"/></g></g></g></g></g></g></g></g></svg>