<svg width="28" xmlns="http://www.w3.org/2000/svg" height="32" id="screenshot-cea7a17f-99ee-80ce-8008-20fbd6358d8b" viewBox="0 0 28 32" xmlns:xlink="http://www.w3.org/1999/xlink" fill="none" version="1.1"><g id="shape-cea7a17f-99ee-80ce-8008-20fbd6358d8b" width="800" height="800" rx="0" ry="0" style="fill: rgb(0, 0, 0);"><defs><clipPath id="render-1-a" class="svg-def" transform="matrix(1.000000, 0.000000, 0.000000, 1.000000, 0.000000, 0.000000)"><rect width="28" height="20" rx="2" fill="#fff"/></clipPath><mask y1="0" width="28" maskUnits="userSpaceOnUse" x1="0" height="20" class="svg-def" x="0" id="render-1-b" style="mask-type: alpha;" data-old-y="0" data-old-width="28" data-old-x="0" y="0" x2="28" y2="20" data-old-height="20"><g class="svg-mask-wrapper" transform="matrix(1.000000, 0.000000, 0.000000, 1.000000, 0.000000, 0.000000)"><rect x=".25" y=".25" width="27.5" height="19.5" rx="1.75" fill="#fff" stroke="#fff" stroke-width=".5"/></g></mask></defs><g id="shape-cea7a17f-99ee-80ce-8008-20fbd63616c1" style="display: none;"><g class="fills" id="fills-cea7a17f-99ee-80ce-8008-20fbd63616c1"><rect width="28" height="28" x="0" transform="matrix(1.000000, 0.000000, 0.000000, 1.000000, 0.000000, 0.000000)" style="fill: none;" ry="0" fill="none" rx="0" y="0"/></g></g><g id="shape-cea7a17f-99ee-80ce-8008-20fbd63616c2" clip-path="url(#render-3-a)" rx="0" ry="0" style="fill: rgb(0, 0, 0);"><defs><clipPath id="render-3-a" class="svg-def" transform="matrix(1.000000, 0.000000, 0.000000, 1.000000, 0.000000, 4.000000)"><rect width="28" height="20" rx="2" fill="#fff"/></clipPath></defs><g id="shape-cea7a17f-99ee-80ce-8008-20fbd63646ae"><g class="fills" id="fills-cea7a17f-99ee-80ce-8008-20fbd63646ae"><rect rx="1.75" ry="1.75" x="0.25" y="4.25" transform="matrix(1.000000, 0.000000, 0.000000, 1.000000, 0.000000, 0.000000)" width="27.5" height="19.5" style="fill: rgb(255, 255, 255);"/></g><g id="strokes-faecee21-6423-8011-8008-28a592bcf3be-cea7a17f-99ee-80ce-8008-20fbd63646ae" class="strokes"><g class="stroke-shape"><rect rx="1.75" ry="1.75" x="0.25" y="4.25" transform="matrix(1.000000, 0.000000, 0.000000, 1.000000, 0.000000, 0.000000)" width="27.5" height="19.5" style="fill: none; stroke-width: 0.5; stroke: rgb(245, 245, 245); stroke-opacity: 1;"/></g></g></g><g id="shape-cea7a17f-99ee-80ce-8008-20fbd63646af" mask="url(#render-5-b)" rx="0" ry="0" style="fill: rgb(0, 0, 0);"><defs><mask y1="4" width="28" maskUnits="userSpaceOnUse" x1="0" height="20" class="svg-def" x="0" id="render-5-b" style="mask-type: alpha;" data-old-y="4" data-old-width="28" data-old-x="0" y="4" x2="28" y2="24" data-old-height="20"><g class="svg-mask-wrapper" transform="matrix(1.000000, 0.000000, 0.000000, 1.000000, 0.000000, 4.000000)"><rect x=".25" y=".25" width="27.5" height="19.5" rx="1.75" fill="#fff" stroke="#fff" stroke-width=".5"/></g></mask></defs><g id="shape-cea7a17f-99ee-80ce-8008-20fbd63646b0"><g class="fills" id="fills-cea7a17f-99ee-80ce-8008-20fbd63646b0"><path d="M-0.0006854943931102753,17.333332061767578L27.99931526184082,17.333332061767578L27.99931526184082,10.666827201843262L-0.0006854943931102753,10.666827201843262L-0.0006854943931102753,17.333332061767578Z" fill-rule="evenodd" clip-rule="evenodd" style="fill: rgb(12, 71, 183);"/></g></g><g id="shape-cea7a17f-99ee-80ce-8008-20fbd63646b1"><g class="fills" id="fills-cea7a17f-99ee-80ce-8008-20fbd63646b1"><path d="M-0.0006854943931102753,24.000080108642578L27.99931526184082,24.000080108642578L27.99931526184082,17.333332061767578L-0.0006854943931102753,17.333332061767578L-0.0006854943931102753,24.000080108642578Z" fill-rule="evenodd" clip-rule="evenodd" style="fill: rgb(229, 59, 53);"/></g></g></g></g><g id="shape-cea7a17f-99ee-80ce-8008-20fbd636bd1f"><defs fill="none" style="fill: rgb(0, 0, 0);"/></g></g></svg>