<svg width="28" xmlns="http://www.w3.org/2000/svg" height="28" id="screenshot-cea7a17f-99ee-80ce-8008-20fbd610f2ca" viewBox="0 0 28 28" xmlns:xlink="http://www.w3.org/1999/xlink" fill="none" version="1.1"><g id="shape-cea7a17f-99ee-80ce-8008-20fbd610f2ca"><defs><clipPath id="frame-clip-cea7a17f-99ee-80ce-8008-20fbd610f2ca-render-1" class="frame-clip frame-clip-def"><rect rx="0" ry="0" x="0" y="0" width="28" height="28" transform="matrix(1.000000, 0.000000, 0.000000, 1.000000, 0.000000, 0.000000)"/></clipPath></defs><g class="frame-container-wrapper"><g class="frame-container-blur"><g class="frame-container-shadows"><g clip-path="url(#frame-clip-cea7a17f-99ee-80ce-8008-20fbd610f2ca-render-1)" fill="none"><g class="fills" id="fills-cea7a17f-99ee-80ce-8008-20fbd610f2ca"><rect rx="0" ry="0" x="0" y="0" width="28" height="28" transform="matrix(1.000000, 0.000000, 0.000000, 1.000000, 0.000000, 0.000000)" class="frame-background"/></g><g class="frame-children"><g id="shape-cea7a17f-99ee-80ce-8008-20fbd60f7a83" width="800" height="800" rx="0" ry="0" style="fill: rgb(0, 0, 0);"><defs><clipPath id="render-2-a" class="svg-def" transform="matrix(1.000000, 0.000000, 0.000000, 1.000000, 0.000000, 0.000000)"><rect width="28" height="20" rx="2" fill="#fff"/></clipPath><mask y1="0" width="28" maskUnits="userSpaceOnUse" x1="0" height="20" class="svg-def" x="0" id="render-2-b" style="mask-type: alpha;" data-old-y="0" data-old-width="28" data-old-x="0" y="0" x2="28" y2="20" data-old-height="20"><g class="svg-mask-wrapper" transform="matrix(1.000000, 0.000000, 0.000000, 1.000000, 0.000000, 0.000000)"><rect x=".25" y=".25" width="27.5" height="19.5" rx="1.75" fill="#fff" stroke="#fff" stroke-width=".5"/></g></mask></defs><g id="shape-cea7a17f-99ee-80ce-8008-20fbd60fc579" style="display: none;"><g class="fills" id="fills-cea7a17f-99ee-80ce-8008-20fbd60fc579"><rect width="28" height="28" x="0.0827167443712824" transform="matrix(1.000000, 0.000000, 0.000000, 1.000000, 0.000000, 0.000000)" style="fill: none;" ry="0" fill="none" rx="0" y="-3.5452454177434447"/></g></g><g id="shape-cea7a17f-99ee-80ce-8008-20fbd6103996" clip-path="url(#render-4-a)" rx="0" ry="0" style="fill: rgb(0, 0, 0);"><defs><clipPath id="render-4-a" class="svg-def" transform="matrix(1.000000, 0.000000, 0.000000, 1.000000, 0.082717, 0.454755)"><rect width="28" height="20" rx="2" fill="#fff"/></clipPath></defs><g id="shape-cea7a17f-99ee-80ce-8008-20fbd6103997"><g class="fills" id="fills-cea7a17f-99ee-80ce-8008-20fbd6103997"><rect rx="1.75" ry="1.75" x="0.3327167443712824" y="0.7047545822565553" transform="matrix(1.000000, 0.000000, 0.000000, 1.000000, 0.000000, 0.000000)" width="27.5" height="19.5" style="fill: rgb(255, 255, 255);"/></g><g id="strokes-92c0559b-8e60-80e2-8008-28a5b90838c4-cea7a17f-99ee-80ce-8008-20fbd6103997" class="strokes"><g class="stroke-shape"><rect rx="1.75" ry="1.75" x="0.3327167443712824" y="0.7047545822565553" transform="matrix(1.000000, 0.000000, 0.000000, 1.000000, 0.000000, 0.000000)" width="27.5" height="19.5" style="fill: none; stroke-width: 0.5; stroke: rgb(245, 245, 245); stroke-opacity: 1;"/></g></g></g><g id="shape-cea7a17f-99ee-80ce-8008-20fbd6103998" mask="url(#render-6-b)" rx="0" ry="0" style="fill: rgb(0, 0, 0);"><defs><mask y1="0.4547545822565553" width="28" maskUnits="userSpaceOnUse" x1="0.0827167443712824" height="20" class="svg-def" x="0.0827167443712824" id="render-6-b" style="mask-type: alpha;" data-old-y="0.4547545822565553" data-old-width="28" data-old-x="0.0827167443712824" y="0.4547545822565553" x2="28.082716744371282" y2="20.454754582256555" data-old-height="20"><g class="svg-mask-wrapper" transform="matrix(1.000000, 0.000000, 0.000000, 1.000000, 0.082717, 0.454755)"><rect x=".25" y=".25" width="27.5" height="19.5" rx="1.75" fill="#fff" stroke="#fff" stroke-width=".5"/></g></mask></defs><g id="shape-cea7a17f-99ee-80ce-8008-20fbd61042c3"><g class="fills" id="fills-cea7a17f-99ee-80ce-8008-20fbd61042c3"><path d="M0.08203125,7.12158203125L28.08203125,7.12158203125L28.08203125,0.454833984375L0.08203125,0.454833984375L0.08203125,7.12158203125Z" fill-rule="evenodd" clip-rule="evenodd" style="fill: rgb(4, 170, 200);"/></g></g><g id="shape-cea7a17f-99ee-80ce-8008-20fbd61042c4"><g class="fills" id="fills-cea7a17f-99ee-80ce-8008-20fbd61042c4"><path d="M0.08203125,20.454833984375L28.08203125,20.454833984375L28.08203125,13.7880859375L0.08203125,13.7880859375L0.08203125,20.454833984375Z" fill-rule="evenodd" clip-rule="evenodd" style="fill: rgb(35, 200, 64);"/></g></g><g id="shape-cea7a17f-99ee-80ce-8008-20fbd610bbb3"><g class="fills" id="fills-cea7a17f-99ee-80ce-8008-20fbd610bbb3"><path d="M4.75,5.7880859375C5.16015625,5.7880859375,5.54296875,5.6640625,5.859375,5.451171875C5.82421875,5.45361328125,5.78515625,5.454833984375,5.75,5.454833984375C4.828125,5.454833984375,4.08203125,4.708740234375,4.08203125,3.7880859375C4.08203125,2.86767578125,4.828125,2.12158203125,5.75,2.12158203125C5.78515625,2.12158203125,5.82421875,2.122802734375,5.859375,2.125244140625C5.54296875,1.912353515625,5.16015625,1.7880859375,4.75,1.7880859375C3.64453125,1.7880859375,2.75,2.68359375,2.75,3.7880859375C2.75,4.892822265625,3.64453125,5.7880859375,4.75,5.7880859375ZM8.08203125,5.12158203125C8.08203125,5.48974609375,7.78515625,5.7880859375,7.4140625,5.7880859375C7.046875,5.7880859375,6.75,5.48974609375,6.75,5.12158203125C6.75,4.75341796875,7.046875,4.454833984375,7.4140625,4.454833984375C7.78515625,4.454833984375,8.08203125,4.75341796875,8.08203125,5.12158203125ZM10.08203125,3.12158203125C10.44921875,3.12158203125,10.75,2.822998046875,10.75,2.454833984375C10.75,2.086669921875,10.44921875,1.7880859375,10.08203125,1.7880859375C9.71484375,1.7880859375,9.4140625,2.086669921875,9.4140625,2.454833984375C9.4140625,2.822998046875,9.71484375,3.12158203125,10.08203125,3.12158203125ZM13.4140625,2.454833984375C13.4140625,2.822998046875,13.1171875,3.12158203125,12.75,3.12158203125C12.37890625,3.12158203125,12.08203125,2.822998046875,12.08203125,2.454833984375C12.08203125,2.086669921875,12.37890625,1.7880859375,12.75,1.7880859375C13.1171875,1.7880859375,13.4140625,2.086669921875,13.4140625,2.454833984375ZM12.75,5.7880859375C13.1171875,5.7880859375,13.4140625,5.48974609375,13.4140625,5.12158203125C13.4140625,4.75341796875,13.1171875,4.454833984375,12.75,4.454833984375C12.37890625,4.454833984375,12.08203125,4.75341796875,12.08203125,5.12158203125C12.08203125,5.48974609375,12.37890625,5.7880859375,12.75,5.7880859375ZM10.75,5.12158203125C10.75,5.48974609375,10.44921875,5.7880859375,10.08203125,5.7880859375C9.71484375,5.7880859375,9.4140625,5.48974609375,9.4140625,5.12158203125C9.4140625,4.75341796875,9.71484375,4.454833984375,10.08203125,4.454833984375C10.44921875,4.454833984375,10.75,4.75341796875,10.75,5.12158203125Z" fill-rule="evenodd" clip-rule="evenodd" style="fill: rgb(255, 255, 255);"/></g></g></g></g><g id="shape-cea7a17f-99ee-80ce-8008-20fbd610f2c9"><defs fill="none" style="fill: rgb(0, 0, 0);"/></g></g></g></g></g></g></g></g></svg>