<svg width="26" xmlns="http://www.w3.org/2000/svg" height="26" id="screenshot-51929b30-dfc0-807b-8008-1fea923f9dfd" viewBox="0 0 26 26" xmlns:xlink="http://www.w3.org/1999/xlink" fill="none" version="1.1"><g id="shape-51929b30-dfc0-807b-8008-1fea923f9dfd"><defs><clipPath id="frame-clip-51929b30-dfc0-807b-8008-1fea923f9dfd-render-1" class="frame-clip frame-clip-def"><rect rx="0" ry="0" x="0" y="0" width="26" height="26" transform="matrix(1.000000, 0.000000, 0.000000, 1.000000, 0.000000, 0.000000)"/></clipPath></defs><g class="frame-container-wrapper"><g class="frame-container-blur"><g class="frame-container-shadows"><g clip-path="url(#frame-clip-51929b30-dfc0-807b-8008-1fea923f9dfd-render-1)" fill="none"><g class="fills" id="fills-51929b30-dfc0-807b-8008-1fea923f9dfd"><rect rx="0" ry="0" x="0" y="0" width="26" height="26" transform="matrix(1.000000, 0.000000, 0.000000, 1.000000, 0.000000, 0.000000)" class="frame-background"/></g><g class="frame-children"><g id="shape-51929b30-dfc0-807b-8008-1fea92408089" width="24" height="24" rx="0" ry="0" style="fill: rgb(0, 0, 0);"><g id="shape-51929b30-dfc0-807b-8008-1fea9240808a" style="display: none;"><g class="fills" id="fills-51929b30-dfc0-807b-8008-1fea9240808a"><rect width="26" height="26" x="0" transform="matrix(1.000000, 0.000000, 0.000000, 1.000000, 0.000000, 0.000000)" style="fill: none;" ry="0" fill="none" rx="0" y="0.5"/></g></g><g id="shape-51929b30-dfc0-807b-8008-1fea9240808b"><g class="fills" id="fills-51929b30-dfc0-807b-8008-1fea9240808b"><path d="M12.9375,1.854248046875L13.0625,1.854248046875C15.5625,1.854248046875,17.5234375,1.854248046875,19.05078125,2.0595703125C20.6171875,2.270263671875,21.8515625,2.709228515625,22.8203125,3.6787109375C23.7890625,4.64794921875,24.23046875,5.883056640625,24.4375,7.4482421875C24.64453125,8.977294921875,24.64453125,10.93701171875,24.64453125,13.437744140625L24.64453125,13.562255859375C24.64453125,16.06298828125,24.64453125,18.022705078125,24.4375,19.5517578125C24.23046875,21.116943359375,23.7890625,22.35205078125,22.8203125,23.3212890625C21.8515625,24.290771484375,20.6171875,24.729736328125,19.05078125,24.9404296875C17.5234375,25.145751953125,15.5625,25.145751953125,13.0625,25.145751953125L12.9375,25.145751953125C10.4375,25.145751953125,8.4765625,25.145751953125,6.94921875,24.9404296875C5.3828125,24.729736328125,4.1484375,24.290771484375,3.1796875,23.3212890625C2.2109375,22.35205078125,1.76953125,21.116943359375,1.5625,19.5517578125C1.35546875,18.022705078125,1.35546875,16.06298828125,1.35546875,13.562255859375L1.35546875,13.437744140625C1.35546875,10.93701171875,1.35546875,8.977294921875,1.5625,7.4482421875C1.76953125,5.883056640625,2.2109375,4.64794921875,3.1796875,3.6787109375C4.1484375,2.709228515625,5.3828125,2.270263671875,6.94921875,2.0595703125C8.4765625,1.854248046875,10.4375,1.854248046875,12.9375,1.854248046875ZM7.1640625,3.670166015625C5.78125,3.8564453125,4.94140625,4.21044921875,4.328125,4.827880859375C3.7109375,5.44482421875,3.35546875,6.27978515625,3.16796875,7.66455078125C2.98046875,9.072998046875,2.98046875,10.923583984375,2.98046875,13.5C2.98046875,16.076416015625,2.98046875,17.927001953125,3.16796875,19.33544921875C3.35546875,20.72021484375,3.7109375,21.55517578125,4.328125,22.172119140625C4.94140625,22.78955078125,5.78125,23.1435546875,7.1640625,23.32958984375C8.57421875,23.51904296875,10.421875,23.520751953125,13,23.520751953125C15.578125,23.520751953125,17.42578125,23.51904296875,18.8359375,23.32958984375C20.21875,23.1435546875,21.0546875,22.78955078125,21.671875,22.172119140625C22.2890625,21.55517578125,22.64453125,20.72021484375,22.83203125,19.33544921875C23.01953125,17.927001953125,23.01953125,16.076416015625,23.01953125,13.5C23.01953125,10.923583984375,23.01953125,9.072998046875,22.83203125,7.66455078125C22.64453125,6.27978515625,22.2890625,5.44482421875,21.671875,4.827880859375C21.0546875,4.21044921875,20.21875,3.8564453125,18.8359375,3.670166015625C17.42578125,3.48095703125,15.578125,3.479248046875,13,3.479248046875C10.421875,3.479248046875,8.57421875,3.48095703125,7.1640625,3.670166015625ZM9.17578125,14.550537109375L12.42578125,11.300537109375C12.7421875,10.983154296875,13.2578125,10.983154296875,13.57421875,11.300537109375L16.82421875,14.550537109375C17.14453125,14.867919921875,17.14453125,15.382080078125,16.82421875,15.699462890625C16.5078125,16.016845703125,15.9921875,16.016845703125,15.67578125,15.699462890625L13,13.024169921875L10.32421875,15.699462890625C10.0078125,16.016845703125,9.4921875,16.016845703125,9.17578125,15.699462890625C8.85546875,15.382080078125,8.85546875,14.867919921875,9.17578125,14.550537109375Z" fill-rule="evenodd" clip-rule="evenodd" style="fill: rgb(205, 205, 205); fill-opacity: 1;"/></g></g></g></g></g></g></g></g></g></svg>