<svg width="24" xmlns="http://www.w3.org/2000/svg" height="24" id="screenshot-92aa2cf4-f637-8089-8008-1ea6b5a7840d" viewBox="0 0 24 24" xmlns:xlink="http://www.w3.org/1999/xlink" fill="none" version="1.1"><g id="shape-92aa2cf4-f637-8089-8008-1ea6b5a7840d"><defs><clipPath id="frame-clip-92aa2cf4-f637-8089-8008-1ea6b5a7840d-render-1" class="frame-clip frame-clip-def"><rect rx="0" ry="0" x="0" y="0" width="24" height="24" transform="matrix(1.000000, 0.000000, 0.000000, 1.000000, 0.000000, 0.000000)"/></clipPath></defs><g class="frame-container-wrapper"><g class="frame-container-blur"><g class="frame-container-shadows"><g clip-path="url(#frame-clip-92aa2cf4-f637-8089-8008-1ea6b5a7840d-render-1)" fill="none"><g class="fills" id="fills-92aa2cf4-f637-8089-8008-1ea6b5a7840d"><rect rx="0" ry="0" x="0" y="0" width="24" height="24" transform="matrix(1.000000, 0.000000, 0.000000, 1.000000, 0.000000, 0.000000)" class="frame-background"/></g><g class="frame-children"><g id="shape-92aa2cf4-f637-8089-8008-1ea6b5a6fe33" width="24" height="24" rx="0" ry="0" style="fill: rgb(0, 0, 0);"><g id="shape-92aa2cf4-f637-8089-8008-1ea6b5a7275e" style="display: none;"><g class="fills" id="fills-92aa2cf4-f637-8089-8008-1ea6b5a7275e"><rect width="24" height="24" x="0" transform="matrix(1.000000, 0.000000, 0.000000, 1.000000, 0.000000, 0.000000)" style="fill: none;" ry="0" fill="none" rx="0" y="0.5"/></g></g><g id="shape-92aa2cf4-f637-8089-8008-1ea6b5a77180"><g class="fills" id="fills-92aa2cf4-f637-8089-8008-1ea6b5a77180"><path d="M11.94140625,1.75L12.05859375,1.75C14.3671875,1.75,16.17578125,1.75,17.5859375,1.939697265625C19.03125,2.134033203125,20.171875,2.539306640625,21.06640625,3.43408203125C21.9609375,4.328857421875,22.3671875,5.468994140625,22.55859375,6.913818359375C22.75,8.3251953125,22.75,10.13427734375,22.75,12.442626953125L22.75,12.557373046875C22.75,14.86572265625,22.75,16.6748046875,22.55859375,18.086181640625C22.3671875,19.531005859375,21.9609375,20.671142578125,21.06640625,21.56591796875C20.171875,22.460693359375,19.03125,22.865966796875,17.5859375,23.060302734375C16.17578125,23.25,14.3671875,23.25,12.05859375,23.25L11.94140625,23.25C9.6328125,23.25,7.82421875,23.25,6.4140625,23.060302734375C4.96875,22.865966796875,3.828125,22.460693359375,2.93359375,21.56591796875C2.0390625,20.671142578125,1.6328125,19.531005859375,1.44140625,18.086181640625C1.25,16.6748046875,1.25,14.86572265625,1.25,12.557373046875L1.25,12.442626953125C1.25,10.13427734375,1.25,8.3251953125,1.44140625,6.913818359375C1.6328125,5.468994140625,2.0390625,4.328857421875,2.93359375,3.43408203125C3.828125,2.539306640625,4.96875,2.134033203125,6.4140625,1.939697265625C7.82421875,1.75,9.6328125,1.75,11.94140625,1.75ZM6.61328125,3.42626953125C5.3359375,3.59814453125,4.5625,3.925048828125,3.99609375,4.494873046875C3.42578125,5.064453125,3.09765625,5.835205078125,2.92578125,7.113525390625C2.75,8.41357421875,2.75,10.121826171875,2.75,12.5C2.75,14.878173828125,2.75,16.58642578125,2.92578125,17.886474609375C3.09765625,19.164794921875,3.42578125,19.935546875,3.99609375,20.505126953125C4.5625,21.074951171875,5.3359375,21.40185546875,6.61328125,21.573486328125C7.9140625,21.748291015625,9.62109375,21.75,12,21.75C14.37890625,21.75,16.0859375,21.748291015625,17.38671875,21.573486328125C18.6640625,21.40185546875,19.43359375,21.074951171875,20.00390625,20.505126953125C20.57421875,19.935546875,20.90234375,19.164794921875,21.07421875,17.886474609375C21.25,16.58642578125,21.25,14.878173828125,21.25,12.5C21.25,10.121826171875,21.25,8.41357421875,21.07421875,7.113525390625C20.90234375,5.835205078125,20.57421875,5.064453125,20.00390625,4.494873046875C19.43359375,3.925048828125,18.6640625,3.59814453125,17.38671875,3.42626953125C16.0859375,3.251708984375,14.37890625,3.25,12,3.25C9.62109375,3.25,7.9140625,3.251708984375,6.61328125,3.42626953125ZM8.46875,10.4697265625C8.76171875,10.1767578125,9.23828125,10.1767578125,9.53125,10.4697265625L12,12.939208984375L14.46875,10.4697265625C14.76171875,10.1767578125,15.23828125,10.1767578125,15.53125,10.4697265625C15.82421875,10.7626953125,15.82421875,11.2373046875,15.53125,11.5302734375L12.53125,14.5302734375C12.23828125,14.8232421875,11.76171875,14.8232421875,11.46875,14.5302734375L8.46875,11.5302734375C8.17578125,11.2373046875,8.17578125,10.7626953125,8.46875,10.4697265625Z" fill-rule="evenodd" clip-rule="evenodd" style="fill: rgb(122, 122, 122); fill-opacity: 1;"/></g></g></g></g></g></g></g></g></g></svg>