<svg width="24" xmlns="http://www.w3.org/2000/svg" height="24" id="screenshot-bbff6fca-6e13-8051-8008-1ee941881d79" viewBox="0 0 24 24" xmlns:xlink="http://www.w3.org/1999/xlink" fill="none" version="1.1"><g id="shape-bbff6fca-6e13-8051-8008-1ee941881d79" width="24" height="24" rx="0" ry="0" style="fill: rgb(0, 0, 0);"><g id="shape-bbff6fca-6e13-8051-8008-1ee941881d7a" style="display: none;"><g class="fills" id="fills-bbff6fca-6e13-8051-8008-1ee941881d7a"><rect width="24" height="24" x="0" transform="matrix(1.000000, 0.000000, 0.000000, 1.000000, 0.000000, 0.000000)" style="fill: none;" ry="0" fill="none" rx="0" y="0"/></g></g><g id="shape-bbff6fca-6e13-8051-8008-1ee941881d7b"><g class="fills" id="fills-bbff6fca-6e13-8051-8008-1ee941881d7b"><path d="M9.206756591796875,3.1819121837615967C8.952850341796875,3.2617461681365967,8.706756591796875,3.3525664806365967,8.460662841796875,3.4541289806365967C7.339568614959717,3.9189727306365967,6.316131114959717,4.600368976593018,5.460662364959717,5.459255695343018C4.601287364959717,6.318142414093018,3.917693614959717,7.337917804718018,3.452849864959717,8.460232734680176C3.085662364959717,9.350857734680176,2.859099864959717,10.292263984680176,2.780974864959717,11.250027656555176L7.261443614959717,11.250027656555176C7.292693614959717,10.154080390930176,7.394256114959717,9.074246406555176,7.566131114959717,8.050564765930176C7.773162364959717,6.795681476593018,8.077850341796875,5.639187335968018,8.476287841796875,4.650417804718018C8.691131591796875,4.110622882843018,8.933319091796875,3.6164824962615967,9.206756591796875,3.1819121837615967ZM11.999725341796875,1.2500274181365967C10.589569091796875,1.2500274181365967,9.191131591796875,1.5281035900115967,7.886443614959717,2.0683867931365967C6.581756114959717,2.6086699962615967,5.398162364959717,3.4004180431365967,4.398162364959717,4.398708820343018C3.398162364959717,5.396755695343018,2.609099864959717,6.581814289093018,2.066131114959717,7.886257648468018C1.5270687341690063,9.190457344055176,1.2497249841690063,10.588406562805176,1.2497249841690063,12.000027656555176C1.2497249841690063,13.411648750305176,1.5270687341690063,14.809597969055176,2.066131114959717,16.11379623413086C2.609099864959717,17.41823959350586,3.398162364959717,18.60329818725586,4.398162364959717,19.60134506225586C5.398162364959717,20.59963607788086,6.581756114959717,21.39162826538086,7.886443614959717,21.93166732788086C9.191131591796875,22.47195053100586,10.589569091796875,22.75002670288086,11.999725341796875,22.75002670288086C13.409881591796875,22.75002670288086,14.808319091796875,22.47195053100586,16.113006591796875,21.93166732788086C17.417694091796875,21.39162826538086,18.601287841796875,20.59963607788086,19.601287841796875,19.60134506225586C20.597381591796875,18.60329818725586,21.390350341796875,17.41823959350586,21.933319091796875,16.11379623413086C22.472381591796875,14.809597969055176,22.749725341796875,13.411648750305176,22.749725341796875,12.000027656555176C22.749725341796875,10.588406562805176,22.472381591796875,9.190457344055176,21.933319091796875,7.886257648468018C21.390350341796875,6.581814289093018,20.597381591796875,5.396755695343018,19.601287841796875,4.398708820343018C18.601287841796875,3.4004180431365967,17.417694091796875,2.6086699962615967,16.113006591796875,2.0683867931365967C14.808319091796875,1.5281035900115967,13.409881591796875,1.2500274181365967,11.999725341796875,1.2500274181365967ZM11.999725341796875,2.7500274181365967C11.738006591796875,2.7500274181365967,11.402069091796875,2.8757598400115967,11.007537841796875,3.2822539806365967C10.613006591796875,3.6916778087615967,10.218475341796875,4.333279132843018,9.866912841796875,5.207546710968018C9.519256591796875,6.075954914093018,9.238006591796875,7.124294757843018,9.042694091796875,8.295681953430176C8.886444091796875,9.235623359680176,8.792694091796875,10.233181953430176,8.761444091796875,11.250027656555176L15.238006591796875,11.250027656555176C15.206756591796875,10.233181953430176,15.109100341796875,9.235623359680176,14.956756591796875,8.295681953430176C14.761444091796875,7.124294757843018,14.480194091796875,6.075954914093018,14.132537841796875,5.207546710968018C13.780975341796875,4.333279132843018,13.386444091796875,3.6916778087615967,12.991912841796875,3.2822539806365967C12.597381591796875,2.8757598400115967,12.261444091796875,2.7500274181365967,11.999725341796875,2.7500274181365967ZM16.738006591796875,11.250027656555176C16.706756591796875,10.154080390930176,16.605194091796875,9.074246406555176,16.433319091796875,8.050564765930176C16.226287841796875,6.795681476593018,15.921600341796875,5.639187335968018,15.523162841796875,4.650417804718018C15.308319091796875,4.110622882843018,15.066131591796875,3.6164824962615967,14.792694091796875,3.1819121837615967C15.046600341796875,3.2617461681365967,15.292694091796875,3.3525664806365967,15.538787841796875,3.4541289806365967C16.659881591796875,3.9189727306365967,17.683319091796875,4.600368976593018,18.538787841796875,5.459255695343018C19.398162841796875,6.318142414093018,20.081756591796875,7.337917804718018,20.546600341796875,8.460232734680176C20.913787841796875,9.350857734680176,21.140350341796875,10.292263984680176,21.218475341796875,11.250027656555176L16.738006591796875,11.250027656555176ZM15.238006591796875,12.750027656555176L8.761444091796875,12.750027656555176C8.792694091796875,13.766873359680176,8.886444091796875,14.764431953430176,9.042694091796875,15.704129219055176C9.238006591796875,16.87575912475586,9.519256591796875,17.92409896850586,9.866912841796875,18.79250717163086C10.218475341796875,19.66677474975586,10.613006591796875,20.30837631225586,11.007537841796875,20.71780014038086C11.402069091796875,21.12429428100586,11.738006591796875,21.25002670288086,11.999725341796875,21.25002670288086C12.261444091796875,21.25002670288086,12.597381591796875,21.12429428100586,12.991912841796875,20.71780014038086C13.386444091796875,20.30837631225586,13.780975341796875,19.66677474975586,14.132537841796875,18.79250717163086C14.480194091796875,17.92409896850586,14.761444091796875,16.87575912475586,14.956756591796875,15.704129219055176C15.109100341796875,14.764431953430176,15.206756591796875,13.766873359680176,15.238006591796875,12.750027656555176ZM14.792694091796875,20.81814193725586C15.066131591796875,20.38357162475586,15.308319091796875,19.88943099975586,15.523162841796875,19.34963607788086C15.921600341796875,18.36086654663086,16.226287841796875,17.20437240600586,16.433319091796875,15.949490547180176C16.605194091796875,14.925808906555176,16.706756591796875,13.845974922180176,16.738006591796875,12.750027656555176L21.218475341796875,12.750027656555176C21.140350341796875,13.707791328430176,20.913787841796875,14.649197578430176,20.546600341796875,15.539822578430176C20.081756591796875,16.66213607788086,19.398162841796875,17.68191146850586,18.538787841796875,18.54079818725586C17.683319091796875,19.39968490600586,16.659881591796875,20.08108139038086,15.538787841796875,20.54592514038086C15.292694091796875,20.64748764038086,15.046600341796875,20.73830795288086,14.792694091796875,20.81814193725586ZM9.206756591796875,20.81814193725586C8.933319091796875,20.38357162475586,8.691131591796875,19.88943099975586,8.476287841796875,19.34963607788086C8.077850341796875,18.36086654663086,7.773162364959717,17.20437240600586,7.566131114959717,15.949490547180176C7.394256114959717,14.925808906555176,7.292693614959717,13.845974922180176,7.261443614959717,12.750027656555176L2.780974864959717,12.750027656555176C2.859099864959717,13.707791328430176,3.085662364959717,14.649197578430176,3.452849864959717,15.539822578430176C3.917693614959717,16.66213607788086,4.601287364959717,17.68191146850586,5.460662364959717,18.54079818725586C6.316131114959717,19.39968490600586,7.339568614959717,20.08108139038086,8.460662841796875,20.54592514038086C8.706756591796875,20.64748764038086,8.952850341796875,20.73830795288086,9.206756591796875,20.81814193725586Z" fill-rule="evenodd" clip-rule="evenodd" style="fill: rgb(205, 205, 205); fill-opacity: 1;"/></g></g></g></svg>