<svg width="24" xmlns="http://www.w3.org/2000/svg" height="24" id="screenshot-bbff6fca-6e13-8051-8008-1ee4a8ee8f12" viewBox="0 0 24 24" xmlns:xlink="http://www.w3.org/1999/xlink" fill="none" version="1.1"><g id="shape-bbff6fca-6e13-8051-8008-1ee4a8ee8f12" width="24" height="24" rx="0" ry="0" style="fill: rgb(0, 0, 0);"><g id="shape-bbff6fca-6e13-8051-8008-1ee4a8ee8f13" style="display: none;"><g class="fills" id="fills-bbff6fca-6e13-8051-8008-1ee4a8ee8f13"><rect width="24" height="24" x="0" transform="matrix(1.000000, 0.000000, 0.000000, 1.000000, 0.000000, 0.000000)" style="fill: none;" ry="0" fill="none" rx="0" y="0"/></g></g><g id="shape-bbff6fca-6e13-8051-8008-1ee4a8ee8f14"><g class="fills" id="fills-bbff6fca-6e13-8051-8008-1ee4a8ee8f14"><path d="M16.14453125,1.25C15.73046875,1.25,15.39453125,1.585693359375,15.39453125,2C15.39453125,2.414306640625,15.73046875,2.75,16.14453125,2.75L20.1875,2.75L14.46875,8.4697265625C14.17578125,8.762451171875,14.17578125,9.237548828125,14.46875,9.5302734375C14.76171875,9.8232421875,15.23828125,9.8232421875,15.53125,9.5302734375L21.25,3.810546875L21.25,7.857177734375C21.25,8.271240234375,21.5859375,8.607177734375,22,8.607177734375C22.4140625,8.607177734375,22.75,8.271240234375,22.75,7.857177734375L22.75,2C22.75,1.585693359375,22.4140625,1.25,22,1.25L16.14453125,1.25Z" style="fill: rgb(205, 205, 205); fill-opacity: 1;"/></g></g><g id="shape-bbff6fca-6e13-8051-8008-1ee4a8ee8f15"><g class="fills" id="fills-bbff6fca-6e13-8051-8008-1ee4a8ee8f15"><path d="M7.85546875,22.75C8.26953125,22.75,8.60546875,22.414306640625,8.60546875,22C8.60546875,21.585693359375,8.26953125,21.25,7.85546875,21.25L3.8125,21.25L9.53125,15.5302734375C9.82421875,15.2373046875,9.82421875,14.7626953125,9.53125,14.4697265625C9.23828125,14.1767578125,8.76171875,14.1767578125,8.46875,14.4697265625L2.75,20.189208984375L2.75,16.142822265625C2.75,15.728515625,2.4140625,15.392822265625,2,15.392822265625C1.5859375,15.392822265625,1.25,15.728515625,1.25,16.142822265625L1.25,22C1.25,22.414306640625,1.5859375,22.75,2,22.75L7.85546875,22.75Z" style="fill: rgb(205, 205, 205); fill-opacity: 1;"/></g></g></g></svg>