<svg width="24" xmlns="http://www.w3.org/2000/svg" height="24" id="screenshot-92aa2cf4-f637-8089-8008-1ea6b5868a19" viewBox="0 0 24 24" xmlns:xlink="http://www.w3.org/1999/xlink" fill="none" version="1.1"><g id="shape-92aa2cf4-f637-8089-8008-1ea6b5868a19"><defs><clipPath id="frame-clip-92aa2cf4-f637-8089-8008-1ea6b5868a19-render-1" class="frame-clip frame-clip-def"><rect rx="0" ry="0" x="0" y="0" width="24" height="24" transform="matrix(1.000000, 0.000000, 0.000000, 1.000000, 0.000000, 0.000000)"/></clipPath></defs><g class="frame-container-wrapper"><g class="frame-container-blur"><g class="frame-container-shadows"><g clip-path="url(#frame-clip-92aa2cf4-f637-8089-8008-1ea6b5868a19-render-1)" fill="none"><g class="fills" id="fills-92aa2cf4-f637-8089-8008-1ea6b5868a19"><rect rx="0" ry="0" x="0" y="0" width="24" height="24" transform="matrix(1.000000, 0.000000, 0.000000, 1.000000, 0.000000, 0.000000)" class="frame-background"/></g><g class="frame-children"><g id="shape-92aa2cf4-f637-8089-8008-1ea6b5859134" width="24" height="24" rx="0" ry="0" style="fill: rgb(0, 0, 0);"><g id="shape-92aa2cf4-f637-8089-8008-1ea6b585e476" style="display: none;"><g class="fills" id="fills-92aa2cf4-f637-8089-8008-1ea6b585e476"><rect width="24" height="24" x="0" transform="matrix(1.000000, 0.000000, 0.000000, 1.000000, 0.000000, 0.000000)" style="fill: none;" ry="0" fill="none" rx="0" y="0.5"/></g></g><g id="shape-92aa2cf4-f637-8089-8008-1ea6b5866d74"><g class="fills" id="fills-92aa2cf4-f637-8089-8008-1ea6b5866d74"><path d="M20.85546875,10.25C21.26953125,10.25,21.60546875,9.914306640625,21.60546875,9.5C21.60546875,9.085693359375,21.26953125,8.75,20.85546875,8.75L16.8125,8.75L22.53125,3.0302734375C22.82421875,2.737548828125,22.82421875,2.262451171875,22.53125,1.9697265625C22.23828125,1.6767578125,21.76171875,1.6767578125,21.46875,1.9697265625L15.75,7.689453125L15.75,3.642822265625C15.75,3.228759765625,15.4140625,2.892822265625,15,2.892822265625C14.5859375,2.892822265625,14.25,3.228759765625,14.25,3.642822265625L14.25,9.5C14.25,9.914306640625,14.5859375,10.25,15,10.25L20.85546875,10.25Z" style="fill: rgb(205, 205, 205); fill-opacity: 1;"/></g></g><g id="shape-92aa2cf4-f637-8089-8008-1ea6b5868a18"><g class="fills" id="fills-92aa2cf4-f637-8089-8008-1ea6b5868a18"><path d="M3.14453125,14.75C2.73046875,14.75,2.39453125,15.085693359375,2.39453125,15.5C2.39453125,15.914306640625,2.73046875,16.25,3.14453125,16.25L7.1875,16.25L1.46875,21.9697265625C1.17578125,22.2626953125,1.17578125,22.7373046875,1.46875,23.0302734375C1.76171875,23.3232421875,2.23828125,23.3232421875,2.53125,23.0302734375L8.25,17.310791015625L8.25,21.357177734375C8.25,21.771484375,8.5859375,22.107177734375,9,22.107177734375C9.4140625,22.107177734375,9.75,21.771484375,9.75,21.357177734375L9.75,15.5C9.75,15.085693359375,9.4140625,14.75,9,14.75L3.14453125,14.75Z" style="fill: rgb(205, 205, 205); fill-opacity: 1;"/></g></g></g></g></g></g></g></g></g></svg>