<svg width="26" xmlns="http://www.w3.org/2000/svg" height="26" id="screenshot-92aa2cf4-f637-8089-8008-1ea6b5972161" viewBox="0 0 26 26" xmlns:xlink="http://www.w3.org/1999/xlink" fill="none" version="1.1"><g id="shape-92aa2cf4-f637-8089-8008-1ea6b5972161"><defs><clipPath id="frame-clip-92aa2cf4-f637-8089-8008-1ea6b5972161-render-1" class="frame-clip frame-clip-def"><rect rx="0" ry="0" x="0" y="0" width="26" height="26" transform="matrix(1.000000, 0.000000, 0.000000, 1.000000, 0.000000, 0.000000)"/></clipPath></defs><g class="frame-container-wrapper"><g class="frame-container-blur"><g class="frame-container-shadows"><g clip-path="url(#frame-clip-92aa2cf4-f637-8089-8008-1ea6b5972161-render-1)" fill="none"><g class="fills" id="fills-92aa2cf4-f637-8089-8008-1ea6b5972161"><rect rx="0" ry="0" x="0" y="0" width="26" height="26" transform="matrix(1.000000, 0.000000, 0.000000, 1.000000, 0.000000, 0.000000)" class="frame-background"/></g><g class="frame-children"><g id="shape-92aa2cf4-f637-8089-8008-1ea6b595c599" width="24" height="24" rx="0" ry="0" style="fill: rgb(0, 0, 0);"><g id="shape-92aa2cf4-f637-8089-8008-1ea6b5963034" style="display: none;"><g class="fills" id="fills-92aa2cf4-f637-8089-8008-1ea6b5963034"><rect width="26" height="26" x="0" transform="matrix(1.000000, 0.000000, 0.000000, 1.000000, 0.000000, 0.000000)" style="fill: none;" ry="0" fill="none" rx="0" y="0.5"/></g></g><g id="shape-92aa2cf4-f637-8089-8008-1ea6b596dc7b"><g class="fills" id="fills-92aa2cf4-f637-8089-8008-1ea6b596dc7b"><path d="M15.46875,2.831787109375C15.0703125,2.666748046875,14.55859375,2.666748046875,13.54296875,2.666748046875C12.52734375,2.666748046875,12.015625,2.666748046875,11.6171875,2.831787109375C11.078125,3.051513671875,10.65625,3.473388671875,10.4296875,4.004150390625C10.3359375,4.246337890625,10.29296875,4.5283203125,10.27734375,4.939453125C10.25390625,5.543701171875,9.94140625,6.102783203125,9.4140625,6.4052734375C8.88671875,6.70751953125,8.2421875,6.696044921875,7.70703125,6.41357421875C7.3359375,6.221435546875,7.0703125,6.114501953125,6.80859375,6.080322265625C6.23828125,6.00537109375,5.65234375,6.15966796875,5.1953125,6.50927734375C4.8515625,6.771728515625,4.59375,7.208984375,4.0859375,8.083251953125C3.578125,8.95751953125,3.328125,9.39453125,3.265625,9.822021484375C3.1953125,10.391845703125,3.34765625,10.9677734375,3.703125,11.423828125C3.86328125,11.6318359375,4.0859375,11.806640625,4.4375,12.025390625C4.95703125,12.347412109375,5.28515625,12.8955078125,5.28515625,13.5C5.28515625,14.1044921875,4.95703125,14.652587890625,4.4375,14.97412109375C4.0859375,15.193359375,3.86328125,15.3681640625,3.703125,15.576171875C3.34765625,16.0322265625,3.1953125,16.608154296875,3.265625,17.177978515625C3.328125,17.60498046875,3.578125,18.04248046875,4.0859375,18.916748046875C4.59375,19.790771484375,4.8515625,20.228271484375,5.1953125,20.490234375C5.65234375,20.84033203125,6.23828125,20.99462890625,6.80859375,20.919677734375C7.0703125,20.885498046875,7.3359375,20.7783203125,7.70703125,20.58642578125C8.2421875,20.303955078125,8.88671875,20.29248046875,9.4140625,20.5947265625C9.94140625,20.897216796875,10.25390625,21.456298828125,10.27734375,22.060546875C10.29296875,22.4716796875,10.3359375,22.753662109375,10.4296875,22.995849609375C10.65625,23.526611328125,11.078125,23.948486328125,11.6171875,24.16845703125C12.015625,24.333251953125,12.52734375,24.333251953125,13.54296875,24.333251953125C14.55859375,24.333251953125,15.0703125,24.333251953125,15.46875,24.16845703125C16.00390625,23.948486328125,16.4296875,23.526611328125,16.65234375,22.995849609375C16.75,22.753662109375,16.79296875,22.4716796875,16.80859375,22.060546875C16.828125,21.456298828125,17.14453125,20.897216796875,17.66796875,20.5947265625C18.1953125,20.29248046875,18.83984375,20.303955078125,19.37890625,20.58642578125C19.74609375,20.7783203125,20.01171875,20.88525390625,20.2734375,20.919677734375C20.84375,20.99462890625,21.4296875,20.84033203125,21.88671875,20.490234375C22.234375,20.22802734375,22.48828125,19.790771484375,22.99609375,18.916748046875C23.50390625,18.042236328125,23.7578125,17.60498046875,23.81640625,17.177978515625C23.88671875,16.608154296875,23.734375,16.031982421875,23.37890625,15.576171875C23.21875,15.3681640625,22.99609375,15.19287109375,22.64453125,14.97412109375C22.12890625,14.652587890625,21.796875,14.1044921875,21.796875,13.5C21.796875,12.8955078125,22.12890625,12.347412109375,22.64453125,12.02587890625C22.99609375,11.806640625,23.21875,11.6318359375,23.37890625,11.423828125C23.734375,10.968017578125,23.88671875,10.391845703125,23.81640625,9.822021484375C23.7578125,9.39453125,23.50390625,8.957763671875,22.99609375,8.083251953125C22.48828125,7.208984375,22.234375,6.77197265625,21.88671875,6.509765625C21.4296875,6.15966796875,20.84375,6.00537109375,20.2734375,6.080322265625C20.01171875,6.114501953125,19.74609375,6.221435546875,19.3828125,6.41357421875C18.83984375,6.696044921875,18.1953125,6.70751953125,17.66796875,6.4052734375C17.14453125,6.102783203125,16.828125,5.543701171875,16.8046875,4.939453125C16.79296875,4.5283203125,16.75,4.246337890625,16.65234375,4.004150390625C16.4296875,3.473388671875,16.00390625,3.051513671875,15.46875,2.831787109375ZM13.54296875,16.75C15.34765625,16.75,16.81640625,15.295166015625,16.81640625,13.5C16.81640625,11.704833984375,15.34765625,10.25,13.54296875,10.25C11.734375,10.25,10.265625,11.704833984375,10.265625,13.5C10.265625,15.295166015625,11.734375,16.75,13.54296875,16.75Z" fill-rule="evenodd" clip-rule="evenodd" style="fill: rgb(205, 205, 205); fill-opacity: 1;"/></g></g></g></g></g></g></g></g></g></svg>