<svg width="26" xmlns="http://www.w3.org/2000/svg" height="26" id="screenshot-92aa2cf4-f637-8089-8008-1eb84048d62f" viewBox="0 0 26 26" xmlns:xlink="http://www.w3.org/1999/xlink" fill="none" version="1.1"><g id="shape-92aa2cf4-f637-8089-8008-1eb84048d62f"><defs><clipPath id="frame-clip-92aa2cf4-f637-8089-8008-1eb84048d62f-render-1" class="frame-clip frame-clip-def"><rect rx="0" ry="0" x="0" y="0" width="26" height="26" transform="matrix(1.000000, 0.000000, 0.000000, 1.000000, 0.000000, 0.000000)"/></clipPath></defs><g class="frame-container-wrapper"><g class="frame-container-blur"><g class="frame-container-shadows"><g clip-path="url(#frame-clip-92aa2cf4-f637-8089-8008-1eb84048d62f-render-1)" fill="none"><g class="fills" id="fills-92aa2cf4-f637-8089-8008-1eb84048d62f"><rect rx="0" ry="0" x="0" y="0" width="26" height="26" transform="matrix(1.000000, 0.000000, 0.000000, 1.000000, 0.000000, 0.000000)" class="frame-background"/></g><g class="frame-children"><g id="shape-92aa2cf4-f637-8089-8008-1eb84048d630" width="24" height="24" rx="0" ry="0" style="fill: rgb(0, 0, 0);"><g id="shape-92aa2cf4-f637-8089-8008-1eb84048d631" style="display: none;"><g class="fills" id="fills-92aa2cf4-f637-8089-8008-1eb84048d631"><rect width="26" height="26" x="0" transform="matrix(1.000000, 0.000000, 0.000000, 1.000000, 0.000000, 0.000000)" style="fill: none;" ry="0" fill="none" rx="0" y="0.5"/></g></g><g id="shape-92aa2cf4-f637-8089-8008-1eb84048d632"><g class="fills" id="fills-92aa2cf4-f637-8089-8008-1eb84048d632"><path d="M13,9.4375C10.7578125,9.4375,8.9375,11.25634765625,8.9375,13.5C8.9375,15.74365234375,10.7578125,17.5625,13,17.5625C15.2421875,17.5625,17.0625,15.74365234375,17.0625,13.5C17.0625,11.25634765625,15.2421875,9.4375,13,9.4375ZM10.5625,13.5C10.5625,12.15380859375,11.65625,11.0625,13,11.0625C14.34375,11.0625,15.4375,12.15380859375,15.4375,13.5C15.4375,14.84619140625,14.34375,15.9375,13,15.9375C11.65625,15.9375,10.5625,14.84619140625,10.5625,13.5Z" fill-rule="evenodd" clip-rule="evenodd" style="fill: rgb(205, 205, 205); fill-opacity: 1;"/></g></g><g id="shape-92aa2cf4-f637-8089-8008-1eb84048d633"><g class="fills" id="fills-92aa2cf4-f637-8089-8008-1eb84048d633"><path d="M12.9765625,1.854248046875C12.4921875,1.854248046875,12.08984375,1.854248046875,11.76171875,1.876708984375C11.41796875,1.900146484375,11.08984375,1.95068359375,10.77734375,2.080810546875C10.046875,2.38330078125,9.46484375,2.963134765625,9.1640625,3.693115234375C9.00390625,4.0732421875,8.9609375,4.473876953125,8.9453125,4.9091796875C8.93359375,5.25927734375,8.7578125,5.55126953125,8.49609375,5.70166015625C8.234375,5.85205078125,7.8984375,5.85888671875,7.5859375,5.6953125C7.203125,5.49169921875,6.8359375,5.328369140625,6.421875,5.274658203125C5.640625,5.171630859375,4.8515625,5.384033203125,4.22265625,5.86474609375C3.953125,6.072265625,3.74609375,6.327880859375,3.5546875,6.613525390625C3.3671875,6.88818359375,3.16796875,7.236328125,2.9296875,7.6533203125L2.8984375,7.70068359375C2.66015625,8.11767578125,2.45703125,8.4658203125,2.31640625,8.7626953125C2.1640625,9.072021484375,2.04296875,9.378173828125,1.99609375,9.716064453125C1.89453125,10.49951171875,2.109375,11.29150390625,2.58984375,11.91845703125C2.83984375,12.24462890625,3.1640625,12.48193359375,3.53515625,12.713623046875C3.828125,12.89990234375,3.99609375,13.198974609375,3.99609375,13.5C3.99609375,13.801025390625,3.828125,14.099853515625,3.53515625,14.286376953125C3.1640625,14.51806640625,2.83984375,14.75537109375,2.58984375,15.08154296875C2.109375,15.70849609375,1.89453125,16.50048828125,1.99609375,17.283935546875C2.04296875,17.62158203125,2.1640625,17.927978515625,2.31640625,18.2373046875C2.45703125,18.5341796875,2.66015625,18.88232421875,2.8984375,19.299072265625L2.9296875,19.3466796875C3.16796875,19.763671875,3.3671875,20.111572265625,3.5546875,20.38623046875C3.74609375,20.672119140625,3.953125,20.927734375,4.22265625,21.135009765625C4.8515625,21.615966796875,5.640625,21.828369140625,6.421875,21.725341796875C6.8359375,21.671630859375,7.203125,21.508056640625,7.5859375,21.3046875C7.8984375,21.14111328125,8.234375,21.14794921875,8.49609375,21.29833984375C8.7578125,21.44873046875,8.93359375,21.74072265625,8.9453125,22.091064453125C8.9609375,22.526123046875,9.00390625,22.9267578125,9.1640625,23.306884765625C9.46484375,24.036865234375,10.046875,24.616943359375,10.77734375,24.919189453125C11.08984375,25.04931640625,11.41796875,25.099853515625,11.76171875,25.123291015625C12.08984375,25.145751953125,12.4921875,25.145751953125,12.9765625,25.145751953125L13.0234375,25.145751953125C13.5078125,25.145751953125,13.91015625,25.145751953125,14.23828125,25.123291015625C14.58203125,25.099853515625,14.91015625,25.04931640625,15.22265625,24.919189453125C15.953125,24.616943359375,16.53515625,24.036865234375,16.8359375,23.306884765625C16.99609375,22.9267578125,17.0390625,22.526123046875,17.0546875,22.0908203125C17.06640625,21.74072265625,17.2421875,21.44873046875,17.50390625,21.29833984375C17.765625,21.14794921875,18.1015625,21.14111328125,18.4140625,21.304443359375C18.796875,21.508056640625,19.1640625,21.671630859375,19.578125,21.72509765625C20.359375,21.828125,21.1484375,21.615966796875,21.77734375,21.135009765625C22.046875,20.927490234375,22.25390625,20.672119140625,22.4453125,20.38623046875C22.6328125,20.111572265625,22.83203125,19.763671875,23.0703125,19.3466796875L23.1015625,19.299072265625C23.33984375,18.88232421875,23.54296875,18.533935546875,23.68359375,18.23681640625C23.8359375,17.927734375,23.95703125,17.62158203125,24.00390625,17.283935546875C24.10546875,16.50048828125,23.890625,15.708251953125,23.41015625,15.081298828125C23.16015625,14.75537109375,22.8359375,14.51806640625,22.46484375,14.286376953125C22.171875,14.099853515625,22.00390625,13.801025390625,22.00390625,13.5C22.00390625,13.198974609375,22.171875,12.900146484375,22.46484375,12.713623046875C22.8359375,12.48193359375,23.16015625,12.24462890625,23.41015625,11.91845703125C23.890625,11.29150390625,24.10546875,10.49951171875,24.00390625,9.716064453125C23.95703125,9.37841796875,23.8359375,9.072265625,23.68359375,8.7626953125C23.54296875,8.4658203125,23.33984375,8.11767578125,23.1015625,7.700927734375L23.0703125,7.653564453125C22.83203125,7.236328125,22.6328125,6.888427734375,22.4453125,6.61376953125C22.25390625,6.327880859375,22.046875,6.072265625,21.77734375,5.86474609375C21.1484375,5.384033203125,20.359375,5.171630859375,19.578125,5.274658203125C19.1640625,5.328369140625,18.796875,5.491943359375,18.4140625,5.6953125C18.1015625,5.85888671875,17.765625,5.85205078125,17.50390625,5.70166015625C17.2421875,5.55126953125,17.06640625,5.25927734375,17.0546875,4.908935546875C17.0390625,4.4736328125,16.99609375,4.0732421875,16.8359375,3.693115234375C16.53515625,2.963134765625,15.953125,2.38330078125,15.22265625,2.080810546875C14.91015625,1.95068359375,14.58203125,1.900146484375,14.23828125,1.876708984375C13.91015625,1.854248046875,13.5078125,1.854248046875,13.0234375,1.854248046875L12.9765625,1.854248046875ZM11.3984375,3.582275390625C11.48046875,3.547607421875,11.609375,3.515625,11.87109375,3.498046875C12.13671875,3.479736328125,12.484375,3.479248046875,13,3.479248046875C13.515625,3.479248046875,13.86328125,3.479736328125,14.12890625,3.498046875C14.390625,3.515625,14.51953125,3.547607421875,14.6015625,3.582275390625C14.93359375,3.719482421875,15.1953125,3.9833984375,15.3359375,4.315185546875C15.37890625,4.419677734375,15.4140625,4.582763671875,15.4296875,4.9697265625C15.45703125,5.828369140625,15.90234375,6.65478515625,16.69140625,7.10888671875C17.4765625,7.56298828125,18.4140625,7.533447265625,19.17578125,7.132080078125C19.515625,6.951171875,19.671875,6.900634765625,19.7890625,6.885986328125C20.14453125,6.8388671875,20.50390625,6.935546875,20.78515625,7.154296875C20.859375,7.209228515625,20.953125,7.30322265625,21.09375,7.520263671875C21.24609375,7.7431640625,21.421875,8.04296875,21.6796875,8.489501953125C21.9375,8.936279296875,22.109375,9.236572265625,22.2265625,9.477783203125C22.34375,9.712646484375,22.37890625,9.83837890625,22.390625,9.92822265625C22.4375,10.2841796875,22.33984375,10.644287109375,22.12109375,10.92919921875C22.05078125,11.01904296875,21.9296875,11.1318359375,21.6015625,11.337890625C20.875,11.794921875,20.37890625,12.591796875,20.37890625,13.5C20.37890625,14.408203125,20.875,15.205078125,21.6015625,15.662109375C21.9296875,15.8681640625,22.05078125,15.98095703125,22.12109375,16.07080078125C22.33984375,16.355712890625,22.4375,16.7158203125,22.390625,17.07177734375C22.37890625,17.16162109375,22.34375,17.287353515625,22.2265625,17.522216796875C22.10546875,17.763427734375,21.9375,18.0634765625,21.6796875,18.510498046875C21.421875,18.95703125,21.24609375,19.2568359375,21.09375,19.479736328125C20.953125,19.696533203125,20.859375,19.790771484375,20.78515625,19.845703125C20.50390625,20.064453125,20.14453125,20.160888671875,19.7890625,20.114013671875C19.671875,20.09912109375,19.515625,20.048583984375,19.17578125,19.867919921875C18.4140625,19.466552734375,17.4765625,19.43701171875,16.69140625,19.89111328125C15.90234375,20.34521484375,15.45703125,21.171630859375,15.4296875,22.0302734375C15.4140625,22.417236328125,15.37890625,22.580078125,15.3359375,22.68505859375C15.1953125,23.0166015625,14.93359375,23.280517578125,14.6015625,23.417724609375C14.51953125,23.452392578125,14.390625,23.484375,14.12890625,23.501953125C13.86328125,23.520263671875,13.515625,23.520751953125,13,23.520751953125C12.484375,23.520751953125,12.13671875,23.520263671875,11.87109375,23.501953125C11.609375,23.484375,11.48046875,23.452392578125,11.3984375,23.417724609375C11.06640625,23.280517578125,10.8046875,23.0166015625,10.6640625,22.68505859375C10.62109375,22.580078125,10.5859375,22.417236328125,10.5703125,22.0302734375C10.54296875,21.171875,10.09765625,20.34521484375,9.30859375,19.89111328125C8.5234375,19.43701171875,7.5859375,19.466552734375,6.82421875,19.867919921875C6.484375,20.048828125,6.328125,20.099365234375,6.2109375,20.114013671875C5.85546875,20.1611328125,5.49609375,20.064453125,5.21484375,19.845703125C5.140625,19.790771484375,5.046875,19.69677734375,4.90625,19.479736328125C4.75390625,19.2568359375,4.578125,18.95703125,4.3203125,18.510498046875C4.0625,18.063720703125,3.890625,17.763427734375,3.7734375,17.522216796875C3.65625,17.287353515625,3.62109375,17.16162109375,3.609375,17.07177734375C3.5625,16.7158203125,3.66015625,16.355712890625,3.87890625,16.07080078125C3.94921875,15.98095703125,4.0703125,15.8681640625,4.3984375,15.662109375C5.125,15.205322265625,5.62109375,14.408203125,5.62109375,13.5C5.62109375,12.591796875,5.125,11.794677734375,4.3984375,11.337646484375C4.0703125,11.1318359375,3.94921875,11.01904296875,3.87890625,10.92919921875C3.66015625,10.644287109375,3.5625,10.2841796875,3.609375,9.92822265625C3.62109375,9.83837890625,3.65625,9.71240234375,3.7734375,9.477783203125C3.89453125,9.236328125,4.0625,8.936279296875,4.3203125,8.489501953125C4.578125,8.04296875,4.75390625,7.7431640625,4.90625,7.52001953125C5.046875,7.30322265625,5.140625,7.209228515625,5.21484375,7.154296875C5.49609375,6.935546875,5.85546875,6.8388671875,6.2109375,6.8857421875C6.328125,6.900634765625,6.484375,6.951171875,6.82421875,7.132080078125C7.5859375,7.533447265625,8.5234375,7.562744140625,9.30859375,7.108642578125C10.09765625,6.65478515625,10.54296875,5.828369140625,10.5703125,4.9697265625C10.5859375,4.582763671875,10.62109375,4.419677734375,10.6640625,4.315185546875C10.8046875,3.9833984375,11.06640625,3.719482421875,11.3984375,3.582275390625Z" fill-rule="evenodd" clip-rule="evenodd" style="fill: rgb(205, 205, 205); fill-opacity: 1;"/></g></g></g></g></g></g></g></g></g></svg>