<svg width="24" xmlns="http://www.w3.org/2000/svg" height="24" id="screenshot-92aa2cf4-f637-8089-8008-1eb70808bc69" viewBox="0 0 24 24" xmlns:xlink="http://www.w3.org/1999/xlink" fill="none" version="1.1"><g id="shape-92aa2cf4-f637-8089-8008-1eb70808bc69"><defs><clipPath id="frame-clip-92aa2cf4-f637-8089-8008-1eb70808bc69-render-1" class="frame-clip frame-clip-def"><rect rx="0" ry="0" x="0" y="0" width="24" height="24" transform="matrix(1.000000, 0.000000, 0.000000, 1.000000, 0.000000, 0.000000)"/></clipPath></defs><g class="frame-container-wrapper"><g class="frame-container-blur"><g class="frame-container-shadows"><g clip-path="url(#frame-clip-92aa2cf4-f637-8089-8008-1eb70808bc69-render-1)" fill="none"><g class="fills" id="fills-92aa2cf4-f637-8089-8008-1eb70808bc69"><rect rx="0" ry="0" x="0" y="0" width="24" height="24" transform="matrix(1.000000, 0.000000, 0.000000, 1.000000, 0.000000, 0.000000)" class="frame-background"/></g><g class="frame-children"><g id="shape-92aa2cf4-f637-8089-8008-1eb7080908c6" width="24" height="24" rx="0" ry="0" style="fill: rgb(0, 0, 0);"><g id="shape-92aa2cf4-f637-8089-8008-1eb7080908c7" style="display: none;"><g class="fills" id="fills-92aa2cf4-f637-8089-8008-1eb7080908c7"><rect width="24" height="24" x="0.35560178867308423" transform="matrix(1.000000, 0.000000, 0.000000, 1.000000, 0.000000, 0.000000)" style="fill: none;" ry="0" fill="none" rx="0" y="0.23087125185929835"/></g></g><g id="shape-92aa2cf4-f637-8089-8008-1eb7080908c8"><g class="fills" id="fills-92aa2cf4-f637-8089-8008-1eb7080908c8"><path d="M8.35546875,17.23095703125C8.90625,17.23095703125,9.35546875,16.783203125,9.35546875,16.23095703125C9.35546875,15.6787109375,8.90625,15.23095703125,8.35546875,15.23095703125C7.8046875,15.23095703125,7.35546875,15.6787109375,7.35546875,16.23095703125C7.35546875,16.783203125,7.8046875,17.23095703125,8.35546875,17.23095703125Z" style="fill: rgb(205, 205, 205); fill-opacity: 1;"/></g></g><g id="shape-92aa2cf4-f637-8089-8008-1eb7080908c9"><g class="fills" id="fills-92aa2cf4-f637-8089-8008-1eb7080908c9"><path d="M12.35546875,17.23095703125C12.90625,17.23095703125,13.35546875,16.783203125,13.35546875,16.23095703125C13.35546875,15.6787109375,12.90625,15.23095703125,12.35546875,15.23095703125C11.8046875,15.23095703125,11.35546875,15.6787109375,11.35546875,16.23095703125C11.35546875,16.783203125,11.8046875,17.23095703125,12.35546875,17.23095703125Z" style="fill: rgb(205, 205, 205); fill-opacity: 1;"/></g></g><g id="shape-92aa2cf4-f637-8089-8008-1eb7080908ca"><g class="fills" id="fills-92aa2cf4-f637-8089-8008-1eb7080908ca"><path d="M17.35546875,16.23095703125C17.35546875,16.783203125,16.90625,17.23095703125,16.35546875,17.23095703125C15.8046875,17.23095703125,15.35546875,16.783203125,15.35546875,16.23095703125C15.35546875,15.6787109375,15.8046875,15.23095703125,16.35546875,15.23095703125C16.90625,15.23095703125,17.35546875,15.6787109375,17.35546875,16.23095703125Z" style="fill: rgb(205, 205, 205); fill-opacity: 1;"/></g></g><g id="shape-92aa2cf4-f637-8089-8008-1eb7080908cb"><g class="fills" id="fills-92aa2cf4-f637-8089-8008-1eb7080908cb"><path d="M7.10546875,8.23095703125C7.10546875,5.33154296875,9.45703125,2.98095703125,12.35546875,2.98095703125C14.80078125,2.98095703125,16.85546875,4.6533203125,17.44140625,6.91796875C17.54296875,7.319091796875,17.953125,7.560546875,18.3515625,7.457275390625C18.75390625,7.35400390625,18.99609375,6.945068359375,18.89453125,6.5439453125C18.14453125,3.6328125,15.5,1.48095703125,12.35546875,1.48095703125C8.62890625,1.48095703125,5.60546875,4.5029296875,5.60546875,8.23095703125L5.60546875,9.53369140625C5.37890625,9.549560546875,5.1640625,9.570556640625,4.96484375,9.597412109375C4.0625,9.718505859375,3.3046875,9.977294921875,2.703125,10.579345703125C2.1015625,11.18115234375,1.84375,11.93896484375,1.72265625,12.839111328125C1.60546875,13.7060546875,1.60546875,14.808349609375,1.60546875,16.176025390625L1.60546875,16.285888671875C1.60546875,17.653564453125,1.60546875,18.755859375,1.72265625,19.622802734375C1.84375,20.52294921875,2.1015625,21.28076171875,2.703125,21.882568359375C3.3046875,22.484619140625,4.0625,22.743408203125,4.96484375,22.864501953125C5.83203125,22.98095703125,6.93359375,22.98095703125,8.30078125,22.98095703125L16.41015625,22.98095703125C17.77734375,22.98095703125,18.87890625,22.98095703125,19.74609375,22.864501953125C20.6484375,22.743408203125,21.40625,22.484619140625,22.0078125,21.882568359375C22.609375,21.28076171875,22.8671875,20.52294921875,22.98828125,19.622802734375C23.10546875,18.755859375,23.10546875,17.653564453125,23.10546875,16.285888671875L23.10546875,16.176025390625C23.10546875,14.808349609375,23.10546875,13.7060546875,22.98828125,12.839111328125C22.8671875,11.93896484375,22.609375,11.18115234375,22.0078125,10.579345703125C21.40625,9.977294921875,20.6484375,9.718505859375,19.74609375,9.597412109375C18.87890625,9.48095703125,17.77734375,9.48095703125,16.41015625,9.48095703125L8.30078125,9.48095703125C7.87890625,9.48095703125,7.48046875,9.48095703125,7.10546875,9.484375L7.10546875,8.23095703125ZM5.1640625,11.083984375C4.4296875,11.182861328125,4.04296875,11.363037109375,3.765625,11.639892578125C3.48828125,11.916748046875,3.30859375,12.30517578125,3.20703125,13.0390625C3.10546875,13.79443359375,3.10546875,14.795654296875,3.10546875,16.23095703125C3.10546875,17.666259765625,3.10546875,18.66748046875,3.20703125,19.4228515625C3.30859375,20.15673828125,3.48828125,20.545166015625,3.765625,20.822021484375C4.04296875,21.098876953125,4.4296875,21.279052734375,5.1640625,21.3779296875C5.91796875,21.479248046875,6.921875,21.48095703125,8.35546875,21.48095703125L16.35546875,21.48095703125C17.7890625,21.48095703125,18.79296875,21.479248046875,19.546875,21.3779296875C20.28125,21.279052734375,20.66796875,21.098876953125,20.9453125,20.822021484375C21.22265625,20.545166015625,21.40234375,20.15673828125,21.50390625,19.4228515625C21.60546875,18.66748046875,21.60546875,17.666259765625,21.60546875,16.23095703125C21.60546875,14.795654296875,21.60546875,13.79443359375,21.50390625,13.0390625C21.40234375,12.30517578125,21.22265625,11.916748046875,20.9453125,11.639892578125C20.66796875,11.363037109375,20.28125,11.182861328125,19.546875,11.083984375C18.79296875,10.982666015625,17.7890625,10.98095703125,16.35546875,10.98095703125L8.35546875,10.98095703125C6.921875,10.98095703125,5.91796875,10.982666015625,5.1640625,11.083984375Z" fill-rule="evenodd" clip-rule="evenodd" style="fill: rgb(205, 205, 205); fill-opacity: 1;"/></g></g></g></g></g></g></g></g></g></svg>